<?xml version="1.0" encoding="UTF-8" standalone="no"?>
<svg
   xmlns:dc="http://purl.org/dc/elements/1.1/"
   xmlns:cc="http://creativecommons.org/ns#"
   xmlns:rdf="http://www.w3.org/1999/02/22-rdf-syntax-ns#"
   xmlns:svg="http://www.w3.org/2000/svg"
   xmlns="http://www.w3.org/2000/svg"
   xmlns:sodipodi="http://sodipodi.sourceforge.net/DTD/sodipodi-0.dtd"
   xmlns:inkscape="http://www.inkscape.org/namespaces/inkscape"
   version="1.1"
   id="svg2"
   xml:space="preserve"
   width="374.72"
   height="523.84003"
   viewBox="0 0 374.72 523.84003"
   sodipodi:docname="Maintainers_01.pdf"><metadata
     id="metadata8"><rdf:RDF><cc:Work
         rdf:about=""><dc:format>image/svg+xml</dc:format><dc:type
           rdf:resource="http://purl.org/dc/dcmitype/StillImage" /></cc:Work></rdf:RDF></metadata><defs
     id="defs6"><clipPath
       clipPathUnits="userSpaceOnUse"
       id="clipPath18"><path
         d="M 0,0 H 1170.8333 V 1634.8071 H 0 Z"
         clip-rule="evenodd"
         id="path16" /></clipPath><clipPath
       clipPathUnits="userSpaceOnUse"
       id="clipPath30"><path
         d="M 0,0 H 1170.8333 V 1634.8071 H 0 Z"
         id="path28" /></clipPath><clipPath
       clipPathUnits="userSpaceOnUse"
       id="clipPath36"><path
         d="M 0,0 H 1170.8333 V 1634.8071 H 0 Z"
         id="path34" /></clipPath><clipPath
       clipPathUnits="userSpaceOnUse"
       id="clipPath42"><path
         d="m 712.74854,949.3714 h 365.74736 v 141.4737 H 712.74854 Z"
         id="path40" /></clipPath><clipPath
       clipPathUnits="userSpaceOnUse"
       id="clipPath48"><path
         d="m 712.74854,1036.9503 v -33.6842 c -7e-5,-7.14696 1.36846,-14.0219 4.10546,-20.62474 2.737,-6.60291 6.63422,-12.43115 11.69165,-17.48468 5.05732,-5.05365 10.88996,-8.94794 17.49781,-11.68286 6.60779,-2.73493 13.48785,-4.10242 20.64013,-4.10242 h 257.87721 c 7.1521,0 14.0321,1.36749 20.64,4.10242 6.6078,2.73498 12.4403,6.62927 17.4978,11.68292 5.0573,5.05353 8.9545,10.88177 11.6917,17.48462 2.7369,6.60284 4.1054,13.47778 4.1056,20.62474 v 33.6842 c -2e-4,7.1469 -1.3687,14.0216 -4.1058,20.6245 -2.737,6.6029 -6.6342,12.4312 -11.6915,17.4849 -5.0575,5.0536 -10.8901,8.9478 -17.4979,11.6827 -6.6078,2.735 -13.4878,4.1026 -20.6399,4.1027 H 766.68359 c -7.15228,-10e-5 -14.03234,-1.3677 -20.64019,-4.1027 -6.60785,-2.7349 -12.44043,-6.6291 -17.49775,-11.6827 -5.05743,-5.0537 -8.95465,-10.882 -11.69165,-17.4849 -2.737,-6.6029 -4.10553,-13.4776 -4.10546,-20.6245 z"
         id="path46" /></clipPath><clipPath
       clipPathUnits="userSpaceOnUse"
       id="clipPath60"><path
         d="M 0,0 H 1170.8333 V 1634.8071 H 0 Z"
         clip-rule="evenodd"
         id="path58" /></clipPath><clipPath
       clipPathUnits="userSpaceOnUse"
       id="clipPath156"><path
         d="M 0,0 H 1170.8333 V 1634.8071 H 0 Z"
         id="path154" /></clipPath><clipPath
       clipPathUnits="userSpaceOnUse"
       id="clipPath162"><path
         d="M 0,0 H 1170.8333 V 1634.8071 H 0 Z"
         id="path160" /></clipPath><clipPath
       clipPathUnits="userSpaceOnUse"
       id="clipPath168"><path
         d="M 13.867308,624.34064 H 391.28796 V 765.81433 H 13.867308 Z"
         id="path166" /></clipPath><clipPath
       clipPathUnits="userSpaceOnUse"
       id="clipPath174"><path
         d="m 13.867308,711.91956 v -33.68421 c -10e-7,-7.14691 1.368519,-14.02185 4.10556,-20.62469 2.737043,-6.60285 6.634264,-12.43109 11.69166,-17.48468 5.057392,-5.05365 10.889988,-8.94794 17.497795,-11.68293 6.607803,-2.73492 13.487827,-4.10241 20.640068,-4.10241 H 337.35983 c 7.15219,0 14.0322,1.36749 20.64002,4.10241 6.60779,2.73499 12.4404,6.62928 17.4978,11.68293 5.05737,5.05359 8.95459,10.88183 11.69165,17.48468 2.73703,6.60284 4.10559,13.47778 4.10562,20.62469 v 33.68421 c -3e-5,7.14685 -1.36859,14.02166 -4.10562,20.62451 -2.73706,6.60284 -6.63428,12.43109 -11.69165,17.48474 -5.0574,5.05365 -10.89001,8.94794 -17.4978,11.68298 -6.60782,2.73499 -13.48783,4.10248 -20.64002,4.10254 H 67.802391 c -7.152241,-6e-5 -14.032265,-1.36755 -20.640068,-4.1026 -6.607807,-2.73498 -12.440403,-6.62927 -17.497795,-11.68292 -5.057396,-5.05365 -8.954615,-10.8819 -11.691658,-17.48474 -2.737043,-6.60285 -4.105563,-13.47766 -4.105562,-20.62451 z"
         id="path172" /></clipPath><clipPath
       clipPathUnits="userSpaceOnUse"
       id="clipPath186"><path
         d="M 0,0 H 1170.8333 V 1634.8071 H 0 Z"
         clip-rule="evenodd"
         id="path184" /></clipPath><clipPath
       clipPathUnits="userSpaceOnUse"
       id="clipPath234"><path
         d="M 0,0 H 1170.8333 V 1634.8071 H 0 Z"
         id="path232" /></clipPath><clipPath
       clipPathUnits="userSpaceOnUse"
       id="clipPath240"><path
         d="M 0,0 H 1170.8333 V 1634.8071 H 0 Z"
         id="path238" /></clipPath><clipPath
       clipPathUnits="userSpaceOnUse"
       id="clipPath246"><path
         d="m 18.63517,1430.7521 h 332.03787 v 107.7894 H 18.63517 Z"
         id="path244" /></clipPath><clipPath
       clipPathUnits="userSpaceOnUse"
       id="clipPath252"><path
         d="m 18.63517,1484.6467 c -2e-6,-7.1469 1.368519,-14.0218 4.105558,-20.6247 2.73704,-6.6029 6.634257,-12.4311 11.691649,-17.4846 5.057392,-5.0536 10.889988,-8.948 17.497787,-11.683 6.6078,-2.7349 13.48782,-4.1023 20.640057,-4.1023 H 296.73798 c 7.15222,0 14.03222,1.3675 20.64004,4.1025 6.60779,2.735 12.4404,6.6293 17.4978,11.6829 5.05738,5.0536 8.95456,10.8817 11.69159,17.4845 2.73706,6.6029 4.10559,13.4778 4.10562,20.6247 -3e-5,7.1469 -1.36856,14.0216 -4.10562,20.6244 -2.73703,6.6029 -6.63421,12.4313 -11.69159,17.485 -5.0574,5.0536 -10.89001,8.9478 -17.49783,11.6827 -6.60779,2.735 -13.48779,4.1026 -20.64001,4.1027 H 72.570221 c -7.152237,-10e-5 -14.032257,-1.3677 -20.640057,-4.1027 -6.607799,-2.7349 -12.440395,-6.6291 -17.497787,-11.6827 -5.057392,-5.0537 -8.954609,-10.8821 -11.691651,-17.485 -2.737039,-6.6028 -4.105558,-13.4775 -4.105556,-20.6244 z"
         id="path250" /></clipPath><clipPath
       clipPathUnits="userSpaceOnUse"
       id="clipPath264"><path
         d="M 0,0 H 1170.8333 V 1634.8071 H 0 Z"
         clip-rule="evenodd"
         id="path262" /></clipPath><clipPath
       clipPathUnits="userSpaceOnUse"
       id="clipPath308"><path
         d="M 0,0 H 1170.8333 V 1634.8071 H 0 Z"
         id="path306" /></clipPath><clipPath
       clipPathUnits="userSpaceOnUse"
       id="clipPath314"><path
         d="M 0,0 H 1170.8333 V 1634.8071 H 0 Z"
         id="path312" /></clipPath><clipPath
       clipPathUnits="userSpaceOnUse"
       id="clipPath320"><path
         d="M 692.46173,210.96797 H 1110.4586 V 386.12591 H 692.46173 Z"
         id="path318" /></clipPath><clipPath
       clipPathUnits="userSpaceOnUse"
       id="clipPath326"><path
         d="m 692.46173,332.23117 v -67.36844 c -6e-5,-7.14691 1.36847,-14.0218 4.10547,-20.62466 2.737,-6.60288 6.63422,-12.43111 11.69165,-17.48471 5.05737,-5.05362 10.88995,-8.94792 17.4978,-11.68293 6.60779,-2.73497 13.48786,-4.10246 20.64014,-4.10246 h 310.12681 c 7.1522,0 14.0321,1.36749 20.6398,4.10246 6.6078,2.73501 12.4405,6.62931 17.4978,11.68293 5.0574,5.0536 8.9546,10.88183 11.6916,17.48471 2.7372,6.60286 4.1057,13.47775 4.1058,20.62466 v 67.36844 c -10e-5,7.14688 -1.3686,14.02173 -4.1058,20.62457 -2.737,6.60288 -6.6342,12.43113 -11.6916,17.48474 -5.0573,5.05362 -10.89,8.94791 -17.4978,11.6829 -6.6077,2.73501 -13.4876,4.10251 -20.6398,4.10254 H 746.39679 c -7.15228,-3e-5 -14.03235,-1.36753 -20.64014,-4.10254 -6.60785,-2.73499 -12.44043,-6.62928 -17.4978,-11.6829 -5.05743,-5.05361 -8.95465,-10.88186 -11.69165,-17.48471 -2.737,-6.60287 -4.10553,-13.47772 -4.10547,-20.6246 z"
         id="path324" /></clipPath><clipPath
       clipPathUnits="userSpaceOnUse"
       id="clipPath338"><path
         d="M 0,0 H 1170.8333 V 1634.8071 H 0 Z"
         clip-rule="evenodd"
         id="path336" /></clipPath></defs><sodipodi:namedview
     pagecolor="#ffffff"
     bordercolor="#666666"
     borderopacity="1"
     objecttolerance="10"
     gridtolerance="10"
     guidetolerance="10"
     inkscape:pageopacity="0"
     inkscape:pageshadow="2"
     inkscape:window-width="640"
     inkscape:window-height="480"
     id="namedview4" /><g
     id="g10"
     inkscape:groupmode="layer"
     inkscape:label="Maintainers_01"
     transform="matrix(0.31999998,0,0,0.31999998,0,1.3096e-5)"><g
       id="g12"><g
         id="g14"
         clip-path="url(#clipPath18)"><g
           id="g20"
           transform="scale(3.1139183)"><path
             d="M 0,0 H 376 V 525 H 0 Z"
             style="fill:#ffffff;fill-opacity:1;fill-rule:nonzero;stroke:none"
             id="path22" /></g></g></g><g
       id="g24"><g
         id="g26"
         clip-path="url(#clipPath30)"><g
           id="g32"
           clip-path="url(#clipPath36)"><g
             id="g38"
             clip-path="url(#clipPath42)"><g
               id="g44"
               clip-path="url(#clipPath48)"><g
                 id="g50"
                 transform="matrix(1.6854714,0,0,1.6842108,712.74854,949.3714)"><path
                   d="m 32,0 h 153 c 2.10115,0 4.18211,0.20495698 6.24289,0.61487097 2.06076,0.40991393 4.06174,1.01690843 6.00294,1.82098373 1.94121,0.8040752 3.78533,1.7897808 5.53238,2.9571173 1.74706,1.1673365 3.36345,2.4938726 4.84919,3.9796104 1.48573,1.4857366 2.81227,3.1021266 3.97961,4.8491676 1.16733,1.747043 2.15303,3.591168 2.95711,5.532378 0.80409,1.941209 1.41108,3.942203 1.821,6.002981 C 216.79503,27.817884 216.99998,29.898848 217,32 v 20 c -2e-5,2.101147 -0.20497,4.182106 -0.6149,6.242878 -0.4099,2.06078 -1.01689,4.061771 -1.82098,6.002979 -0.80408,1.941216 -1.78978,3.78534 -2.95713,5.532379 -1.16732,1.747048 -2.49386,3.363434 -3.97959,4.849175 -1.48574,1.485733 -3.10213,2.812271 -4.84919,3.979607 -1.74705,1.167335 -3.59117,2.153045 -5.53238,2.957115 -1.9412,0.804077 -3.94218,1.411071 -6.00296,1.820991 C 189.1821,83.795036 187.10115,83.999992 185,84 H 32 c -2.101152,-8e-6 -4.182116,-0.204964 -6.242893,-0.614876 -2.060778,-0.40992 -4.06177,-1.016914 -6.002979,-1.820991 -1.94121,-0.80407 -3.785335,-1.78978 -5.532378,-2.957115 C 12.474709,77.439682 10.858319,76.113144 9.3725824,74.627411 7.8868446,73.14167 6.560308,71.525284 5.3929715,69.778236 4.2256355,68.031197 3.2399299,66.187073 2.4358547,64.245857 1.6317794,62.304649 1.0247849,60.303658 0.61487097,58.242882 0.20495698,56.182106 0,54.101147 0,52 V 32 C 0,29.898848 0.20495698,27.817884 0.61487097,25.757107 1.0247849,23.696329 1.6317794,21.695337 2.4358547,19.754128 3.2399299,17.812918 4.2256355,15.968793 5.392972,14.22175 6.5603085,12.474709 7.8868446,10.858319 9.3725824,9.3725824 10.858319,7.8868446 12.474709,6.560308 14.22175,5.3929715 15.968793,4.2256355 17.812918,3.2399299 19.754128,2.4358547 21.695337,1.6317794 23.696331,1.0247849 25.757109,0.61487097 27.817884,0.20495698 29.898848,0 32,0 Z"
                   style="fill:none;stroke:#5cd430;stroke-width:1;stroke-linecap:butt;stroke-linejoin:miter;stroke-miterlimit:10;stroke-dasharray:none;stroke-opacity:1"
                   id="path52" /></g></g></g></g></g></g><g
       id="g54"><g
         id="g56"
         clip-path="url(#clipPath60)"><g
           id="g62"
           transform="matrix(3.1202118,0,0,3.1139183,766.67407,986.42407)"><text
             transform="translate(2.4008825,7.5721159)"
             style="font-variant:normal;font-weight:normal;font-size:7.57px;font-family:'Open Sans';-inkscape-font-specification:OpenSans-Regular;writing-mode:lr-tb;fill:#1a1a1a;fill-opacity:1;fill-rule:nonzero;stroke:none"
             id="text66"><tspan
               x="0 4.6748657 8.9176941 10.830475 15.073303 19.279205 22.886902 27.12973 30.737427 32.701904 37.336151 41.903931 43.868408 48.51004 53.07782 55.747589 57.712067 62.346313 65.43335 69.676178 73.88208"
               y="0"
               sodipodi:role="line"
               id="tspan64">Releases do not break</tspan></text></g><g
           id="g68"
           transform="matrix(3.1202114,0,0,3.1139183,766.67255,986.42407)"><text
             transform="translate(2.7927988,18.389423)"
             style="font-variant:normal;font-weight:normal;font-size:7.57px;font-family:'Open Sans';-inkscape-font-specification:OpenSans-Regular;writing-mode:lr-tb;fill:#1a1a1a;fill-opacity:1;fill-rule:nonzero;stroke:none"
             id="text72"><tspan
               x="0 4.2428284 8.2050171 10.117798 13.725494 16.395264 18.308044 22.949677 27.092804 29.057281 33.691528 37.934357 42.568604 44.481384 49.049164 52.859955 59.894409 64.137238 68.77887 71.448639 75.056335"
               y="0"
               sodipodi:role="line"
               id="tspan70">existing deployments.</tspan></text></g><g
           id="g74"
           transform="matrix(3.1202114,0,0,3.1139183,62.645977,1321.1948)"><text
             transform="translate(10.944074,7.5721159)"
             style="font-variant:normal;font-weight:normal;font-size:7.57px;font-family:'Open Sans';-inkscape-font-specification:OpenSans-Regular;writing-mode:lr-tb;fill:#1a1a1a;fill-opacity:1;fill-rule:nonzero;stroke:none"
             id="text78"><tspan
               x="0 3.969574 8.6112061 13.178986 19.06134 21.025818 23.695587 28.337219 32.580048 34.544525 38.144836 42.712616 47.354248 50.961945 53.631714 56.71875 60.924652 62.837433 67.479065 70.148834 73.756531 75.721008 80.288788 82.851471 84.815948 89.021851 90.934631 92.847412 94.81189 99.446136 103.68896 108.32321 110.23599 114.80377 118.61456 125.64902 129.89185 134.53348 137.20325"
               y="0"
               sodipodi:role="line"
               id="tspan76">know the constraints of all deployments</tspan></text></g><g
           id="g80"
           transform="matrix(1.6854714,0,0,1.6842108,549.64404,1020.0885)"><path
             d="M 95.973473,0 C 57.904083,0 38.869389,188.77577 0.80000001,188.77577"
             style="fill:none;stroke:#5cd430;stroke-width:1;stroke-linecap:butt;stroke-linejoin:miter;stroke-miterlimit:10;stroke-dasharray:none;stroke-opacity:1"
             id="path82" /></g><g
           id="g84"
           transform="matrix(3.1202114,0,0,3.1139183,22.331429,834.58282)"><text
             transform="translate(0.62854475,7.5721159)"
             style="font-variant:normal;font-weight:normal;font-size:7.57px;font-family:'Open Sans';-inkscape-font-specification:OpenSans-Regular;writing-mode:lr-tb;fill:#1a1a1a;fill-opacity:1;fill-rule:nonzero;stroke:none"
             id="text88"><tspan
               x="0 4.6342468 8.8770752 13.352539 17.994171 22.237 25.013855 28.614166 31.701202 35.944031 40.149933 42.819702 47.062531 49.027008 53.23291 57.874542 60.544312 65.112091 72.146545 76.352448 79.022217 83.265045 87.899292 89.86377 94.498016 99.139648 103.34555 105.25833 107.17111 109.84088 113.65167 115.61615 119.21646 123.85809 128.10092 131.70123 135.67081"
               y="0"
               sodipodi:role="line"
               id="tspan86">deﬁne/create automated quality checks</tspan></text></g><g
           id="g90"
           transform="matrix(1.6854714,0,0,1.6842108,472.36105,851.43866)"><path
             d="M 141.82796,100.14514 C 85.416779,100.14514 57.211185,0 0.80000001,0"
             style="fill:none;stroke:#5cd430;stroke-width:1;stroke-linecap:butt;stroke-linejoin:miter;stroke-miterlimit:10;stroke-dasharray:none;stroke-opacity:1"
             id="path92" /></g><g
           id="g94"
           transform="matrix(3.1202114,0,0,3.1139183,372.96152,1016.4979)"><text
             transform="translate(3.2166703,7.5721159)"
             style="font-variant:normal;font-weight:normal;font-size:7.57px;font-family:'Open Sans';-inkscape-font-specification:OpenSans-Regular;writing-mode:lr-tb;fill:#1a1a1a;fill-opacity:1;fill-rule:nonzero;stroke:none"
             id="text98"><tspan
               x="0 3.0870361 7.3298645 11.1185 13.031281 17.274109 23.156464 25.120941 29.67395 34.348816"
               y="0"
               sodipodi:role="line"
               id="tspan96">review PRs</tspan></text></g><g
           id="g100"
           transform="matrix(1.6854714,0,0,1.6842108,514.89783,1020.0885)"><path
             d="M 116.58798,0 C 70.272789,0 47.115192,7.854857 0.80000001,7.854857"
             style="fill:none;stroke:#5cd430;stroke-width:1;stroke-linecap:butt;stroke-linejoin:miter;stroke-miterlimit:10;stroke-dasharray:none;stroke-opacity:1"
             id="path102" /></g><g
           id="g104"
           transform="matrix(3.1202118,0,0,3.1139183,85.088364,928.90344)"><text
             transform="translate(1.7192549,7.5721159)"
             style="font-variant:normal;font-weight:normal;font-size:7.57px;font-family:'Open Sans';-inkscape-font-specification:OpenSans-Regular;writing-mode:lr-tb;fill:#1a1a1a;fill-opacity:1;fill-rule:nonzero;stroke:none"
             id="text108"><tspan
               x="0 3.6076965 7.8505249 11.450836 16.092468 19.179504"
               y="0"
               sodipodi:role="line"
               id="tspan106">secure</tspan></text></g><g
           id="g110"
           transform="matrix(1.6854714,0,0,1.6842108,172.73369,945.75928)"><path
             d="M 109.99199,52 C 66.315193,52 44.476795,0 0.80000001,0"
             style="fill:none;stroke:#5cd430;stroke-width:1;stroke-linecap:butt;stroke-linejoin:miter;stroke-miterlimit:10;stroke-dasharray:none;stroke-opacity:1"
             id="path112" /></g><g
           id="g114"
           transform="matrix(3.1202114,0,0,3.1139183,72.248886,1016.4979)"><text
             transform="translate(1.8523585,7.5721159)"
             style="font-variant:normal;font-weight:normal;font-size:7.57px;font-family:'Open Sans';-inkscape-font-specification:OpenSans-Regular;writing-mode:lr-tb;fill:#1a1a1a;fill-opacity:1;fill-rule:nonzero;stroke:none"
             id="text118"><tspan
               x="0 4.5677795 9.2020264 13.444855 16.531891 20.737793 25.37204 27.284821"
               y="0"
               sodipodi:role="line"
               id="tspan116">operable</tspan></text></g><g
           id="g120"
           transform="matrix(1.6854714,0,0,1.6842108,185.16751,1033.3226)"><path
             d="M 102.61748,0 C 61.890488,0 41.526993,0 0.80000001,0"
             style="fill:none;stroke:#5cd430;stroke-width:1;stroke-linecap:butt;stroke-linejoin:miter;stroke-miterlimit:10;stroke-dasharray:none;stroke-opacity:1"
             id="path122" /></g><g
           id="g124"
           transform="matrix(3.1202114,0,0,3.1139183,-2.2754469,1199.9388)"><text
             transform="translate(5.592464,7.5721159)"
             style="font-variant:normal;font-weight:normal;font-size:7.57px;font-family:'Open Sans';-inkscape-font-specification:OpenSans-Regular;writing-mode:lr-tb;fill:#1a1a1a;fill-opacity:1;fill-rule:nonzero;stroke:none"
             id="text128"><tspan
               x="0 3.969574 8.6112061 13.178986 19.06134 21.025818 26.546295 28.510773 33.14502 36.232056 40.799835 43.469604 47.712433 51.312744 53.982513 55.946991 58.61676 63.258392 67.501221 69.465698 74.10733 78.67511 83.316742 85.750183 85.750183 88.312866 92.954498 97.59613 101.19644 103.86621 105.77899 110.34677 114.9884 119.19431 121.10709 123.07156 126.1586 128.07138 131.67908 135.64865 139.25635 141.22083 145.7886 148.35129 150.31577 152.98553 157.62717 161.87"
               y="0"
               sodipodi:role="line"
               id="tspan126">know &amp; protect the non- functional risks of the </tspan></text></g><g
           id="g130"
           transform="matrix(3.1202114,0,0,3.1139183,-2.2706857,1199.9388)"><text
             transform="translate(4.3908343,18.389423)"
             style="font-variant:normal;font-weight:normal;font-size:7.57px;font-family:'Open Sans';-inkscape-font-specification:OpenSans-Regular;writing-mode:lr-tb;fill:#1a1a1a;fill-opacity:1;fill-rule:nonzero;stroke:none"
             id="text134"><tspan
               x="0 7.0344543 11.602234 15.20993 17.8797 19.844177 24.478424 28.721252 35.755707 39.961609 44.603241 49.237488 51.150269 55.791901 59.935028 61.899506 66.541138 70.148834 74.391663 77.478699 81.086395 83.050873 85.288605 89.531433 91.543915 95.687042 97.699524 99.664001 104.29825 108.54108 111.62811 114.1908 116.04449 118.00897 121.60928 125.81519 130.44943 134.65533 138.25565 140.16843 142.8382 146.64899 148.50269 150.46716 156.04672 160.83237"
               y="0"
               sodipodi:role="line"
               id="tspan132">most demanding users (e.g. perf, capacity, HA)</tspan></text></g><g
           id="g136"
           transform="matrix(1.6854714,0,0,1.6842108,533.72003,1020.0885)"><path
             d="M 105.42806,0 C 63.576836,0 42.651226,126.77576 0.80000001,126.77576"
             style="fill:none;stroke:#5cd430;stroke-width:1;stroke-linecap:butt;stroke-linejoin:miter;stroke-miterlimit:10;stroke-dasharray:none;stroke-opacity:1"
             id="path138" /></g><g
           id="g140"
           transform="matrix(3.1202118,0,0,3.1139183,93.128654,1112.3444)"><text
             transform="translate(1.6268218,7.5721159)"
             style="font-variant:normal;font-weight:normal;font-size:7.57px;font-family:'Open Sans';-inkscape-font-specification:OpenSans-Regular;writing-mode:lr-tb;fill:#1a1a1a;fill-opacity:1;fill-rule:nonzero;stroke:none"
             id="text144"><tspan
               x="0 3.6003113 8.1680908 11.255127 14.342163 18.584991 22.185303"
               y="0"
               sodipodi:role="line"
               id="tspan142">correct</tspan></text></g><g
           id="g146"
           transform="matrix(1.6854714,0,0,1.6842108,185.82195,1033.3226)"><path
             d="M 102.23271,0 C 61.65963,0 41.373085,56.92091 0.80000001,56.92091"
             style="fill:none;stroke:#5cd430;stroke-width:1;stroke-linecap:butt;stroke-linejoin:miter;stroke-miterlimit:10;stroke-dasharray:none;stroke-opacity:1"
             id="path148" /></g></g></g><g
       id="g150"><g
         id="g152"
         clip-path="url(#clipPath156)"><g
           id="g158"
           clip-path="url(#clipPath162)"><g
             id="g164"
             clip-path="url(#clipPath168)"><g
               id="g170"
               clip-path="url(#clipPath174)"><g
                 id="g176"
                 transform="matrix(1.6854714,0,0,1.6842108,13.867308,624.34064)"><path
                   d="m 32,0 h 159.92999 c 2.10115,0 4.1821,0.20495698 6.24288,0.61487097 2.06077,0.40991393 4.06176,1.01690843 6.00297,1.82098373 1.94121,0.8040752 3.78533,1.7897808 5.53238,2.9571173 1.74704,1.1673365 3.36344,2.4938726 4.84917,3.9796104 1.48573,1.4857366 2.81227,3.1021266 3.97961,4.8491676 1.16732,1.747043 2.15302,3.591168 2.95711,5.532378 0.80408,1.941209 1.41107,3.942203 1.82098,6.002981 0.40993,2.060775 0.61489,4.141739 0.6149,6.242891 v 20 c -1e-5,2.101147 -0.20497,4.182106 -0.6149,6.242878 -0.40991,2.06078 -1.0169,4.061771 -1.821,6.002979 -0.80407,1.941216 -1.78977,3.78534 -2.9571,5.532379 -1.16735,1.747048 -2.49387,3.363434 -3.9796,4.849175 -1.48573,1.485733 -3.10213,2.812271 -4.84917,3.979607 -1.74705,1.167335 -3.59117,2.153045 -5.53238,2.957115 -1.94121,0.804077 -3.9422,1.411071 -6.00297,1.820991 -2.06078,0.409912 -4.14173,0.614868 -6.24288,0.614876 L 32,84 c -2.101152,-8e-6 -4.182116,-0.204964 -6.242893,-0.614876 -2.060778,-0.40992 -4.06177,-1.016914 -6.002979,-1.820991 -1.94121,-0.80407 -3.785335,-1.78978 -5.532378,-2.957115 C 12.474709,77.439682 10.858319,76.113144 9.3725824,74.627411 7.8868446,73.14167 6.560308,71.525284 5.3929715,69.778236 4.2256355,68.031197 3.2399299,66.187073 2.4358547,64.245857 1.6317794,62.304649 1.0247849,60.303658 0.61487097,58.242882 0.20495698,56.182106 0,54.101147 0,52 V 32 C 0,29.898848 0.20495698,27.817884 0.61487097,25.757107 1.0247849,23.696329 1.6317794,21.695337 2.4358547,19.754128 3.2399299,17.812918 4.2256355,15.968793 5.392972,14.22175 6.5603085,12.474709 7.8868446,10.858319 9.3725824,9.3725824 10.858319,7.8868446 12.474709,6.560308 14.22175,5.3929715 15.968793,4.2256355 17.812918,3.2399299 19.754128,2.4358547 21.695337,1.6317794 23.696331,1.0247849 25.757109,0.61487097 27.817884,0.20495698 29.898848,0 32,0 Z"
                   style="fill:none;stroke:#2d9bf0;stroke-width:1;stroke-linecap:butt;stroke-linejoin:miter;stroke-miterlimit:10;stroke-dasharray:none;stroke-opacity:1"
                   id="path178" /></g></g></g></g></g></g><g
       id="g180"><g
         id="g182"
         clip-path="url(#clipPath186)"><g
           id="g188"
           transform="matrix(3.1202114,0,0,3.1139183,67.802391,661.39325)"><text
             transform="translate(0,7.5721159)"
             style="font-variant:normal;font-weight:normal;font-size:7.57px;font-family:'Open Sans';-inkscape-font-specification:OpenSans-Regular;writing-mode:lr-tb;fill:#1a1a1a;fill-opacity:1;fill-rule:nonzero;stroke:none"
             id="text192"><tspan
               x="0 4.1505127 8.7921448 12.399841 15.069611 19.275513 21.188293 25.829926 30.035828 34.670074 36.582855 40.825684 42.790161 45.352844 49.920624 53.00766 58.890015 63.095917 66.182953 70.8172"
               y="0"
               sodipodi:role="line"
               id="tspan190">Sustainable forward </tspan></text><text
             transform="translate(0,18.389423)"
             style="font-variant:normal;font-weight:normal;font-size:7.57px;font-family:'Open Sans';-inkscape-font-specification:OpenSans-Regular;writing-mode:lr-tb;fill:#1a1a1a;fill-opacity:1;fill-rule:nonzero;stroke:none"
             id="text196"><tspan
               x="0 3.6003113 8.2419434 12.447845 17.089478 21.232605 25.475433 27.439911 32.960388 34.924866 39.559113 43.801941 47.590576 51.833405 53.746185 58.313965 62.948212 69.982666 74.225494 78.867126 81.536896"
               y="0"
               sodipodi:role="line"
               id="tspan194">change &amp; development.</tspan></text></g><g
           id="g198"
           transform="matrix(3.1202114,0,0,3.1139183,530.65649,592.0708)"><text
             transform="translate(0,7.5721159)"
             style="font-variant:normal;font-weight:normal;font-size:7.57px;font-family:'Open Sans';-inkscape-font-specification:OpenSans-Regular;writing-mode:lr-tb;fill:#1a1a1a;fill-opacity:1;fill-rule:nonzero;stroke:none"
             id="text202"><tspan
               x="0 7.0344543 11.240356 13.153137 17.794769 20.464539 24.670441 26.583221 31.224854 33.189331 38.709808 40.674286 44.880188 48.480499 51.150269 53.063049 57.630829 62.272461 64.236938 68.442841 73.084473 75.04895 79.291779 83.933411 88.076538 89.989319 94.630951 98.873779 103.11661 106.20364 108.11642 112.75806 116.90118 118.86566 120.77844 127.8129 132.44714 135.53418 140.10196 143.89059 148.13342 155.16788 159.41071 164.05234 166.72211 168.68658 173.32083 177.52673 181.12704 185.09662 187.0094 191.57718"
               y="0"
               sodipodi:role="line"
               id="tspan200">maintain &amp; action an engineering improvement backlog</tspan></text></g><g
           id="g204"
           transform="matrix(1.6854714,0,0,1.6842108,391.3074,608.92676)"><path
             d="M 0.80000001,51.161831 C 30.035093,51.161831 44.652641,0 73.887733,0"
             style="fill:none;stroke:#2d9bf0;stroke-width:1;stroke-linecap:butt;stroke-linejoin:miter;stroke-miterlimit:10;stroke-dasharray:none;stroke-opacity:1"
             id="path206" /></g><g
           id="g208"
           transform="matrix(3.1202114,0,0,3.1139183,530.65649,679.66534)"><text
             transform="translate(0,7.5721159)"
             style="font-variant:normal;font-weight:normal;font-size:7.57px;font-family:'Open Sans';-inkscape-font-specification:OpenSans-Regular;writing-mode:lr-tb;fill:#1a1a1a;fill-opacity:1;fill-rule:nonzero;stroke:none"
             id="text212"><tspan
               x="0 3.6003113 8.1680908 12.809723 17.285187 21.919434 26.162262 30.803894 34.404205 38.647034 40.611511 43.281281 47.84906 49.813538 52.900574 57.143402 59.056183 63.299011 66.899323 69.569092 71.533569 76.086578 80.761444 84.369141 86.333618 88.896301 93.464081 96.551117 98.515594 105.55005 109.75595 111.66873 116.31036 118.98013 123.18604 125.09882 129.74045 133.94635 138.5806 140.49338 142.40616 144.31894 146.98871 150.7995 152.76398 155.85101 160.09384 164.29974 167.90744 172.47522 177.11685"
               y="0"
               sodipodi:role="line"
               id="tspan210">conﬁdence to reject PRs for maintainability reasons</tspan></text></g><g
           id="g214"
           transform="matrix(1.6854714,0,0,1.6842108,391.3074,695.08887)"><path
             d="M 0.80000001,0 C 30.035093,0 44.652641,0.83816856 73.887733,0.83816856"
             style="fill:none;stroke:#2d9bf0;stroke-width:1;stroke-linecap:butt;stroke-linejoin:miter;stroke-miterlimit:10;stroke-dasharray:none;stroke-opacity:1"
             id="path216" /></g><g
           id="g218"
           transform="matrix(3.1202114,0,0,3.1139183,530.65649,767.22876)"><text
             transform="translate(0,7.5721159)"
             style="font-variant:normal;font-weight:normal;font-size:7.57px;font-family:'Open Sans';-inkscape-font-specification:OpenSans-Regular;writing-mode:lr-tb;fill:#1a1a1a;fill-opacity:1;fill-rule:nonzero;stroke:none"
             id="text222"><tspan
               x="0 4.6342468 9.2020264 12.802338 17.44397 24.478424 28.721252 33.362885 36.032654 37.997131 40.666901 44.909729 48.51004 53.151672 57.793304 59.706085 63.306396 67.512299 69.425079 71.389557 74.997253 77.667023 81.872925 86.514557 91.148804 95.354706 98.441742 103.07599 106.68369 108.64816 112.85406 117.4957 122.12994 124.09442 127.69473 132.26251 136.90414 140.69278 144.93561 149.57724 152.24701 154.15979 158.72757 163.3692"
               y="0"
               sodipodi:role="line"
               id="tspan220">document technical standards and conventions</tspan></text></g><g
           id="g224"
           transform="matrix(1.6854714,0,0,1.6842108,391.3074,695.08887)"><path
             d="M 0.80000001,0 C 30.035093,0 44.652641,52.838169 73.887733,52.838169"
             style="fill:none;stroke:#2d9bf0;stroke-width:1;stroke-linecap:butt;stroke-linejoin:miter;stroke-miterlimit:10;stroke-dasharray:none;stroke-opacity:1"
             id="path226" /></g></g></g><g
       id="g228"><g
         id="g230"
         clip-path="url(#clipPath234)"><g
           id="g236"
           clip-path="url(#clipPath240)"><g
             id="g242"
             clip-path="url(#clipPath246)"><g
               id="g248"
               clip-path="url(#clipPath252)"><g
                 id="g254"
                 transform="matrix(1.6854714,0,0,1.6842108,18.63517,1430.7521)"><path
                   d="m 32,0 h 133 c 2.10115,0 4.1821,0.20495698 6.24287,0.61487097 2.06078,0.40991393 4.06177,1.01690843 6.00298,1.82098373 1.94121,0.8040752 3.78532,1.7897808 5.53238,2.9571173 1.74705,1.1673365 3.36345,2.4938726 4.84918,3.9796104 1.48573,1.4857366 2.81227,3.1021266 3.97962,4.8491676 1.16732,1.747043 2.15303,3.591168 2.9571,5.532378 0.80406,1.941209 1.41106,3.942203 1.82099,6.002981 0.40991,2.060775 0.61486,4.141739 0.61488,6.242891 -2e-5,2.101151 -0.20497,4.182114 -0.61488,6.242889 -0.40993,2.060776 -1.01693,4.061768 -1.82099,6.00298 -0.80407,1.941208 -1.78978,3.785331 -2.95712,5.532375 -1.16734,1.747044 -2.49387,3.363434 -3.9796,4.849171 -1.48573,1.485737 -3.10213,2.812271 -4.84918,3.979606 -1.74706,1.167336 -3.59117,2.153042 -5.53238,2.957116 -1.94121,0.804073 -3.9422,1.411071 -6.00298,1.820987 C 169.1821,63.795036 167.10115,63.999996 165,64 H 32 c -2.101152,-4e-6 -4.182116,-0.204964 -6.242893,-0.61488 -2.060778,-0.409916 -4.06177,-1.01691 -6.002979,-1.820983 -1.94121,-0.804074 -3.785335,-1.78978 -5.532378,-2.957116 C 12.474709,57.439686 10.858319,56.113152 9.3725824,54.627415 7.8868446,53.141678 6.560308,51.525288 5.3929715,49.778244 4.2256355,48.0312 3.2399299,46.187077 2.4358547,44.245869 1.6317794,42.304657 1.0247849,40.303665 0.61487097,38.242889 0.20495698,36.182114 0,34.101151 0,32 0,29.898848 0.20495698,27.817884 0.61487097,25.757107 1.0247849,23.696329 1.6317794,21.695337 2.4358547,19.754128 3.2399299,17.812918 4.2256355,15.968793 5.392972,14.22175 6.5603085,12.474709 7.8868446,10.858319 9.3725824,9.3725824 10.858319,7.8868446 12.474709,6.560308 14.22175,5.3929715 15.968793,4.2256355 17.812918,3.2399299 19.754128,2.4358547 21.695337,1.6317794 23.696331,1.0247849 25.757109,0.61487097 27.817884,0.20495698 29.898848,0 32,0 Z"
                   style="fill:none;stroke:#ff45e4;stroke-width:1;stroke-linecap:butt;stroke-linejoin:miter;stroke-miterlimit:10;stroke-dasharray:none;stroke-opacity:1"
                   id="path256" /></g></g></g></g></g></g><g
       id="g258"><g
         id="g260"
         clip-path="url(#clipPath264)"><g
           id="g266"
           transform="matrix(3.1202114,0,0,3.1139183,72.570251,1467.8047)"><text
             transform="translate(0,7.5721159)"
             style="font-variant:normal;font-weight:normal;font-size:7.57px;font-family:'Open Sans';-inkscape-font-specification:OpenSans-Regular;writing-mode:lr-tb;fill:#1a1a1a;fill-opacity:1;fill-rule:nonzero;stroke:none"
             id="text270"><tspan
               x="0 4.770874 7.8579102 12.100739 16.306641 18.97641 23.219238 25.183716 29.825348 34.068176 39.950531 41.915009 46.157837 50.120026 54.754272 58.997101 62.084137 64.753906 68.361603"
               y="0"
               sodipodi:role="line"
               id="tspan268">Create new experts.</tspan></text></g><g
           id="g272"
           transform="matrix(3.1202118,0,0,3.1139183,478.36578,1398.4512)"><text
             transform="translate(0,7.5721159)"
             style="font-variant:normal;font-weight:normal;font-size:7.57px;font-family:'Open Sans';-inkscape-font-specification:OpenSans-Regular;writing-mode:lr-tb;fill:#1a1a1a;fill-opacity:1;fill-rule:nonzero;stroke:none"
             id="text276"><tspan
               x="0 4.6416321 8.8844604 10.797241 15.431488 17.395966 21.963745 26.605377 31.239624 35.807404 40.013306 43.100342 47.734589 49.699066 53.904968 58.5466 63.180847 65.145325 67.815094 70.90213 75.108032 77.020813 81.662445 83.626923 88.268555 92.511383 98.393738 100.35822 103.02798 107.27081 111.47672 118.51117 122.11887 124.08334 129.60382 131.5683 133.48108 138.12271 142.75696 144.66974 148.45837 150.37115 155.0054 159.64703 163.85294 165.76572"
               y="0"
               sodipodi:role="line"
               id="tspan274">help onboard and train new teams &amp; individuals</tspan></text></g><g
           id="g278"
           transform="matrix(1.6854714,0,0,1.6842108,350.67151,1415.307)"><path
             d="M 0.80000001,41.161831 C 27.264742,41.161831 40.497112,0 66.961853,0"
             style="fill:none;stroke:#ff45e4;stroke-width:1;stroke-linecap:butt;stroke-linejoin:miter;stroke-miterlimit:10;stroke-dasharray:none;stroke-opacity:1"
             id="path280" /></g><g
           id="g282"
           transform="matrix(3.1202114,0,0,3.1139183,478.36578,1486.0457)"><text
             transform="translate(0,7.5721159)"
             style="font-variant:normal;font-weight:normal;font-size:7.57px;font-family:'Open Sans';-inkscape-font-specification:OpenSans-Regular;writing-mode:lr-tb;fill:#1a1a1a;fill-opacity:1;fill-rule:nonzero;stroke:none"
             id="text286"><tspan
               x="0 4.2428284 8.8844604 12.492157 17.133789 20.220825 24.463654 26.428131 31.062378 35.305206 38.905518 40.818298 44.425995 46.338776 50.906555 55.548187 57.512665 60.599701 64.842529 69.048431 72.656128 77.223907 81.86554 85.473236 87.437714 91.643616 94.730652 98.97348 100.93796 104.53827 108.74417 113.37842 116.04819 120.68982 123.77686 128.01968 132.65393 134.61841 137.18109 141.74887 144.83591 146.80038 151.36816 154.03793 158.67957 162.92239 166.00943 169.61713 171.5816 174.25137 178.81915 180.78363 182.69641 186.93924 191.14514 194.23218 198.87381 200.83829 203.40097 206.48801 211.05579"
               y="0"
               sodipodi:role="line"
               id="tspan284">ensure decision reasons are captured for others to learn from</tspan></text></g><g
           id="g288"
           transform="matrix(1.6854714,0,0,1.6842108,350.67151,1484.6228)"><path
             d="M 0.80000001,0 C 27.264742,0 40.497112,10.838168 66.961853,10.838168"
             style="fill:none;stroke:#ff45e4;stroke-width:1;stroke-linecap:butt;stroke-linejoin:miter;stroke-miterlimit:10;stroke-dasharray:none;stroke-opacity:1"
             id="path290" /></g><g
           id="g292"
           transform="matrix(3.1202118,0,0,3.1139183,478.36578,1573.609)"><text
             transform="translate(0,7.5721159)"
             style="font-variant:normal;font-weight:normal;font-size:7.57px;font-family:'Open Sans';-inkscape-font-specification:OpenSans-Regular;writing-mode:lr-tb;fill:#1a1a1a;fill-opacity:1;fill-rule:nonzero;stroke:none"
             id="text296"><tspan
               x="0 4.6416321 8.2493286 12.492157 14.456635 18.056946 22.624725 25.711761 28.798798 33.041626 36.641937 39.311707 41.224487 45.792267 50.433899 54.041595 56.006073 60.211975 63.819672 65.784149 69.990051 74.631683 76.596161 81.16394 85.798187 90.432434 95.000214 98.08725 100.75702 105.39865 110.04028 111.95306 114.62283 118.43362 120.3981 123.06787 127.63565 129.60013 133.84296 138.4772 143.11884 146.71915 150.92505 153.59482 157.83765 159.80212 163.40244 167.97021 172.61185 175.28162 178.36865 180.28143 184.91568 189.55731 192.22708 196.79486 199.8819"
               y="0"
               sodipodi:role="line"
               id="tspan294">use corrections as an opportunity to educate contributors</tspan></text></g><g
           id="g298"
           transform="matrix(1.6854714,0,0,1.6842108,350.67151,1484.6228)"><path
             d="M 0.80000001,0 C 27.264742,0 40.497112,62.838169 66.961853,62.838169"
             style="fill:none;stroke:#ff45e4;stroke-width:1;stroke-linecap:butt;stroke-linejoin:miter;stroke-miterlimit:10;stroke-dasharray:none;stroke-opacity:1"
             id="path300" /></g></g></g><g
       id="g302"><g
         id="g304"
         clip-path="url(#clipPath308)"><g
           id="g310"
           clip-path="url(#clipPath314)"><g
             id="g316"
             clip-path="url(#clipPath320)"><g
               id="g322"
               clip-path="url(#clipPath326)"><g
                 id="g328"
                 transform="matrix(1.6854714,0,0,1.6842108,692.46173,210.96797)"><path
                   d="m 32,0 h 184 c 2.10115,0 4.1821,0.20495698 6.24287,0.61487097 2.06078,0.40991393 4.06177,1.01690843 6.00298,1.82098373 1.94121,0.8040752 3.78534,1.7897808 5.53239,2.9571173 1.74703,1.1673365 3.36342,2.4938726 4.84917,3.9796104 1.48573,1.4857366 2.81226,3.1021266 3.97958,4.8491676 1.16735,1.747043 2.15305,3.591168 2.95713,5.532378 0.80407,1.941209 1.41107,3.942203 1.82098,6.002981 C 247.79503,27.817884 247.99998,29.898848 248,32 v 40 c -2e-5,2.101151 -0.20497,4.182114 -0.61488,6.242889 -0.40992,2.060769 -1.01691,4.06176 -1.82099,6.002968 -0.80409,1.941208 -1.78979,3.785332 -2.95714,5.532379 -1.16732,1.74704 -2.49385,3.363427 -3.97958,4.849167 -1.48575,1.485733 -3.10214,2.812264 -4.84918,3.979599 -1.74704,1.167336 -3.59117,2.153048 -5.53238,2.957128 -1.94121,0.80407 -3.9422,1.41107 -6.00298,1.82099 C 220.1821,103.79503 218.10115,103.99999 216,104 H 32 c -2.101152,-1e-5 -4.182116,-0.20497 -6.242893,-0.61488 -2.060778,-0.40992 -4.06177,-1.01691 -6.002979,-1.82099 -1.94121,-0.80407 -3.785335,-1.789785 -5.532378,-2.95712 C 12.474709,97.439674 10.858319,96.113136 9.3725824,94.627403 7.8868446,93.141663 6.560308,91.525276 5.3929715,89.778236 4.2256355,88.031189 3.2399299,86.187065 2.4358547,84.245857 1.6317794,82.304649 1.0247849,80.303658 0.61487097,78.242889 0.20495698,76.182114 0,74.101151 0,72 V 32 C 0,29.898848 0.20495698,27.817884 0.61487097,25.757107 1.0247849,23.696329 1.6317794,21.695337 2.4358547,19.754128 3.2399299,17.812918 4.2256355,15.968793 5.392972,14.22175 6.5603085,12.474709 7.8868446,10.858319 9.3725824,9.3725824 10.858319,7.8868446 12.474709,6.560308 14.22175,5.3929715 15.968793,4.2256355 17.812918,3.2399299 19.754128,2.4358547 21.695337,1.6317794 23.696331,1.0247849 25.757109,0.61487097 27.817884,0.20495698 29.898848,0 32,0 Z"
                   style="fill:none;stroke:#ff653b;stroke-width:1;stroke-linecap:butt;stroke-linejoin:miter;stroke-miterlimit:10;stroke-dasharray:none;stroke-opacity:1"
                   id="path330" /></g></g></g></g></g></g><g
       id="g332"><g
         id="g334"
         clip-path="url(#clipPath338)"><g
           id="g340"
           transform="matrix(3.1202114,0,0,3.1139183,746.39679,248.0206)"><text
             transform="translate(0,7.5721159)"
             style="font-variant:normal;font-weight:normal;font-size:7.57px;font-family:'Open Sans';-inkscape-font-specification:OpenSans-Regular;writing-mode:lr-tb;fill:#1a1a1a;fill-opacity:1;fill-rule:nonzero;stroke:none"
             id="text344"><tspan
               x="0 4.2059021 8.8475342 12.447845 17.015625 21.657257 24.744293 28.950195 33.093323 37.336151 39.300629 42.90094 47.468719 52.110352 54.780121 57.867157 59.779938 64.414185 69.055817 71.725586 73.638367 78.206146 82.847778 86.455475"
               y="0"
               sodipodi:role="line"
               id="tspan342">Encourage contributions </tspan></text><text
             transform="translate(0,18.389423)"
             style="font-variant:normal;font-weight:normal;font-size:7.57px;font-family:'Open Sans';-inkscape-font-specification:OpenSans-Regular;writing-mode:lr-tb;fill:#1a1a1a;fill-opacity:1;fill-rule:nonzero;stroke:none"
             id="text348"><tspan
               x="0 4.2059021 8.8475342 13.481781 15.446259 20.087891 24.330719 26.2435 30.877747 32.842224 36.985352 41.22818 43.897949 45.862427 48.532196 53.173828 57.416656 64.451111 66.415588 73.450043 77.692871 80.779907 84.923035 89.165863 93.80011"
               y="0"
               sodipodi:role="line"
               id="tspan346">and help get them merged </tspan></text></g><g
           id="g350"
           transform="matrix(3.1202118,0,0,3.1139183,746.39679,248.0206)"><text
             transform="translate(0,29.206734)"
             style="font-variant:normal;font-weight:normal;font-size:7.57px;font-family:'Open Sans';-inkscape-font-specification:OpenSans-Regular;writing-mode:lr-tb;fill:#1a1a1a;fill-opacity:1;fill-rule:nonzero;stroke:none"
             id="text354"><tspan
               x="0 4.2059021 8.8475342 13.481781 15.446259 18.533295 22.776123 24.688904 28.931732 33.137634 36.745331 40.988159 45.622406 47.586884 52.22113 56.862762 58.775543 62.375854 66.345428 68.258209 72.069"
               y="0"
               sodipodi:role="line"
               id="tspan352">and released quickly.</tspan></text></g><g
           id="g356"
           transform="matrix(3.1202114,0,0,3.1139183,22.240431,476.70013)"><text
             transform="translate(0,7.5721159)"
             style="font-variant:normal;font-weight:normal;font-size:7.57px;font-family:'Open Sans';-inkscape-font-specification:OpenSans-Regular;writing-mode:lr-tb;fill:#1a1a1a;fill-opacity:1;fill-rule:nonzero;stroke:none"
             id="text360"><tspan
               x="0 4.2428284 8.8844604 13.090363 17.724609 19.63739 23.880219 25.844696 30.050598 34.69223 39.326477 41.290955 45.533783 50.175415 53.775726 58.343506 62.985138 66.072174 70.278076 74.421204 78.664032 80.62851 83.715546 87.958374 92.101501 96.743134 98.655914 102.86182 105.94885 107.91333 111.00037 115.24319 117.15598 121.3988 125.60471 129.2124 133.45523"
               y="0"
               sodipodi:role="line"
               id="tspan358">enable and encourage regular releases</tspan></text><text
             transform="translate(0,18.389423)"
             style="font-variant:normal;font-weight:normal;font-size:7.57px;font-family:'Open Sans';-inkscape-font-specification:OpenSans-Regular;writing-mode:lr-tb;fill:#1a1a1a;fill-opacity:1;fill-rule:nonzero;stroke:none"
             id="text364"><tspan
               x="0 3.6076965 8.1754761 10.139954 13.740265 18.308044 22.949677 25.619446 28.706482 30.619263 35.25351 39.895142 42.564911 44.477692 49.045471 53.687103 57.2948 59.259277 62.859589 67.065491 71.707123 73.6716 77.814728 82.057556 84.727325 86.691803 91.32605 95.568878 100.20312 102.11591 106.68369 110.49448 114.7373 119.37155 121.33603 125.97028 130.61191 132.52469 136.125 140.09457 142.00735"
               y="0"
               sodipodi:role="line"
               id="tspan362">so contributions can get deployed quickly</tspan></text></g><g
           id="g366"
           transform="matrix(1.6854714,0,0,1.6842108,505.98535,298.53134)"><path
             d="M 109.85151,0 C 66.230904,0 44.420605,125.77576 0.80000001,125.77576"
             style="fill:none;stroke:#ff653b;stroke-width:1;stroke-linecap:butt;stroke-linejoin:miter;stroke-miterlimit:10;stroke-dasharray:none;stroke-opacity:1"
             id="path368" /></g><g
           id="g370"
           transform="matrix(3.1202118,0,0,3.1139183,59.853558,20.26203)"><text
             transform="translate(0,7.5721159)"
             style="font-variant:normal;font-weight:normal;font-size:7.57px;font-family:'Open Sans';-inkscape-font-specification:OpenSans-Regular;writing-mode:lr-tb;fill:#1a1a1a;fill-opacity:1;fill-rule:nonzero;stroke:none"
             id="text374"><tspan
               x="0 4.2059021 8.8401489 12.628784 14.541565 18.149261 22.39209 24.356567 27.956879 32.524658 37.16629 39.83606 42.923096 44.835876 49.470123 54.111755 56.781525 61.349304 64.43634 68.044037 70.008514 74.642761 78.88559 81.448273 86.016052 89.103088"
               y="0"
               sodipodi:role="line"
               id="tspan372">advise contributors before</tspan></text></g><g
           id="g376"
           transform="matrix(3.1202114,0,0,3.1139183,59.853558,20.26203)"><text
             transform="translate(0,18.389423)"
             style="font-variant:normal;font-weight:normal;font-size:7.57px;font-family:'Open Sans';-inkscape-font-specification:OpenSans-Regular;writing-mode:lr-tb;fill:#1a1a1a;fill-opacity:1;fill-rule:nonzero;stroke:none"
             id="text380"><tspan
               x="0 4.2059021 8.8475342 13.481781 15.446259 20.080505 24.722137 27.809174 29.721954 34.363586 38.506714 40.471191 45.105438 49.348267 53.136902 57.37973 59.292511 63.860291 68.494537 75.528992 79.77182 84.413452 87.083221"
               y="0"
               sodipodi:role="line"
               id="tspan378">and during development.</tspan></text></g><g
           id="g382"
           transform="matrix(1.6854714,0,0,1.6842108,380.0889,53.964203)"><path
             d="M 184.53925,145.22423 C 111.04355,145.22423 74.2957,0 0.80000001,0"
             style="fill:none;stroke:#ff653b;stroke-width:1;stroke-linecap:butt;stroke-linejoin:miter;stroke-miterlimit:10;stroke-dasharray:none;stroke-opacity:1"
             id="path384" /></g><g
           id="g386"
           transform="matrix(3.1202114,0,0,3.1139183,104.50941,141.518)"><text
             transform="translate(0,7.5721159)"
             style="font-variant:normal;font-weight:normal;font-size:7.57px;font-family:'Open Sans';-inkscape-font-specification:OpenSans-Regular;writing-mode:lr-tb;fill:#1a1a1a;fill-opacity:1;fill-rule:nonzero;stroke:none"
             id="text390"><tspan
               x="0 3.0870361 7.3298645 11.1185 13.031281 17.274109 23.156464 25.120941 29.67395 34.348816 37.956512 39.92099 44.555237 49.196869 51.10965 54.709961 58.679535 60.592316"
               y="0"
               sodipodi:role="line"
               id="tspan388">review PRs quickly</tspan></text><text
             transform="translate(0,18.389423)"
             style="font-variant:normal;font-weight:normal;font-size:7.57px;font-family:'Open Sans';-inkscape-font-specification:OpenSans-Regular;writing-mode:lr-tb;fill:#1a1a1a;fill-opacity:1;fill-rule:nonzero;stroke:none"
             id="text394"><tspan
               x="0 4.2059021 8.8475342 13.481781 15.446259 19.04657 23.614349 28.255981 31.863678 34.533447 37.620483 42.262115 45.862427 48.532196 50.444977 54.233612 58.47644 60.389221"
               y="0"
               sodipodi:role="line"
               id="tspan392">and constructively</tspan></text></g><g
           id="g396"
           transform="matrix(1.6854714,0,0,1.6842108,333.71912,175.22018)"><path
             d="M 212.04251,73.224236 C 127.54551,73.224236 85.297005,0 0.80000001,0"
             style="fill:none;stroke:#ff653b;stroke-width:1;stroke-linecap:butt;stroke-linejoin:miter;stroke-miterlimit:10;stroke-dasharray:none;stroke-opacity:1"
             id="path398" /></g><g
           id="g400"
           transform="matrix(3.1202114,0,0,3.1139183,25.543655,350.3685)"><text
             transform="translate(0,7.5721159)"
             style="font-variant:normal;font-weight:normal;font-size:7.57px;font-family:'Open Sans';-inkscape-font-specification:OpenSans-Regular;writing-mode:lr-tb;fill:#1a1a1a;fill-opacity:1;fill-rule:nonzero;stroke:none"
             id="text404"><tspan
               x="0 4.2428284 8.8844604 12.492157 17.133789 20.220825 24.463654 26.428131 30.634033 34.234344 37.834656 42.476288 45.563324 49.769226 52.438995 56.681824 58.535522 60.5 65.141632 68.749329 72.992157 75.55484 80.196472 82.109253 84.07373 88.279633 92.921265 97.555511 99.519989 103.1203 107.68808 112.32971 115.93002 117.8428 121.4505"
               y="0"
               sodipodi:role="line"
               id="tspan402">ensure accurate, useful and concise</tspan></text></g><g
           id="g406"
           transform="matrix(3.1202118,0,0,3.1139183,25.543655,350.3685)"><text
             transform="translate(0,18.389423)"
             style="font-variant:normal;font-weight:normal;font-size:7.57px;font-family:'Open Sans';-inkscape-font-specification:OpenSans-Regular;writing-mode:lr-tb;fill:#1a1a1a;fill-opacity:1;fill-rule:nonzero;stroke:none"
             id="text410"><tspan
               x="0 5.8823547 8.9693909 10.882172 13.551941 16.22171 20.464539 25.106171 27.070648 31.704895 36.272675 39.872986 44.514618 51.549072 55.791901 60.433533 63.103302 67.309204 69.978973 71.891754 76.459534 81.101166 83.065643 87.308472 91.27066 93.183441 96.791138 99.460907"
               y="0"
               sodipodi:role="line"
               id="tspan408">written documentation exists</tspan></text></g><g
           id="g412"
           transform="matrix(1.6854714,0,0,1.6842108,453.66354,298.53134)"><path
             d="M 140.88583,0 C 84.851501,0 56.834335,50.775768 0.80000001,50.775768"
             style="fill:none;stroke:#ff653b;stroke-width:1;stroke-linecap:butt;stroke-linejoin:miter;stroke-miterlimit:10;stroke-dasharray:none;stroke-opacity:1"
             id="path414" /></g><g
           id="g416"
           transform="matrix(3.1202118,0,0,3.1139183,33.988693,262.80515)"><text
             transform="translate(0,7.5721159)"
             style="font-variant:normal;font-weight:normal;font-size:7.57px;font-family:'Open Sans';-inkscape-font-specification:OpenSans-Regular;writing-mode:lr-tb;fill:#1a1a1a;fill-opacity:1;fill-rule:nonzero;stroke:none"
             id="text420"><tspan
               x="0 1.9127808 6.5470276 10.789856 15.431488 18.101257 20.014038 22.576721 26.387512 28.35199 33.872467 35.836945 40.042847 41.955627 43.868408 48.011536 52.653168 54.617645 58.217957 62.785736 67.427368 71.902832 73.815613 77.415924 80.085693 81.998474 86.640106 90.783234 92.747711 98.630066 103.19785 106.28488 110.25446 112.21893 116.46176 120.66766 123.7547 125.66748"
               y="0"
               sodipodi:role="line"
               id="tspan418">identify &amp; align conﬂicting work early</tspan></text></g><g
           id="g422"
           transform="matrix(1.6854714,0,0,1.6842108,453.66354,279.62988)"><path
             d="M 140.88583,11.224234 C 84.851501,11.224234 56.834335,0 0.80000001,0"
             style="fill:none;stroke:#ff653b;stroke-width:1;stroke-linecap:butt;stroke-linejoin:miter;stroke-miterlimit:10;stroke-dasharray:none;stroke-opacity:1"
             id="path424" /></g></g></g></g></svg>
