<?xml version="1.0" encoding="UTF-8" standalone="no"?>
<svg
   xmlns:dc="http://purl.org/dc/elements/1.1/"
   xmlns:cc="http://creativecommons.org/ns#"
   xmlns:rdf="http://www.w3.org/1999/02/22-rdf-syntax-ns#"
   xmlns:svg="http://www.w3.org/2000/svg"
   xmlns="http://www.w3.org/2000/svg"
   xmlns:sodipodi="http://sodipodi.sourceforge.net/DTD/sodipodi-0.dtd"
   xmlns:inkscape="http://www.inkscape.org/namespaces/inkscape"
   version="1.1"
   id="svg2"
   xml:space="preserve"
   width="841.27997"
   height="672"
   viewBox="0 0 841.27997 672"
   sodipodi:docname="triage_01.pdf"><metadata
     id="metadata8"><rdf:RDF><cc:Work
         rdf:about=""><dc:format>image/svg+xml</dc:format><dc:type
           rdf:resource="http://purl.org/dc/dcmitype/StillImage" /></cc:Work></rdf:RDF></metadata><defs
     id="defs6"><clipPath
       clipPathUnits="userSpaceOnUse"
       id="clipPath18"><path
         d="M 0,0 H 2629.1665 V 2098.3372 H 0 Z"
         clip-rule="evenodd"
         id="path16" /></clipPath><clipPath
       clipPathUnits="userSpaceOnUse"
       id="clipPath30"><path
         d="M 0,0 H 2629.1665 V 2098.3372 H 0 Z"
         id="path28" /></clipPath><clipPath
       clipPathUnits="userSpaceOnUse"
       id="clipPath36"><path
         d="M 0,0 H 2629.1665 V 2098.3372 H 0 Z"
         id="path34" /></clipPath><clipPath
       clipPathUnits="userSpaceOnUse"
       id="clipPath42"><path
         d="M 984.96942,843.87604 H 1573.0938 V 1386.5366 H 984.96942 Z"
         id="path40" /></clipPath><clipPath
       clipPathUnits="userSpaceOnUse"
       id="clipPath48"><path
         d="m 1279.0316,843.87604 294.0622,271.33026 -294.0622,271.3303 -294.06218,-271.3303 z"
         id="path46" /></clipPath><clipPath
       clipPathUnits="userSpaceOnUse"
       id="clipPath60"><path
         d="M 0,0 H 2629.1665 V 2098.3372 H 0 Z"
         clip-rule="evenodd"
         id="path58" /></clipPath><clipPath
       clipPathUnits="userSpaceOnUse"
       id="clipPath74"><path
         d="M 0,0 H 2629.1665 V 2098.3372 H 0 Z"
         id="path72" /></clipPath><clipPath
       clipPathUnits="userSpaceOnUse"
       id="clipPath80"><path
         d="M 0,0 H 2629.1665 V 2098.3372 H 0 Z"
         id="path78" /></clipPath><clipPath
       clipPathUnits="userSpaceOnUse"
       id="clipPath86"><path
         d="M 55.237476,963.72522 H 661.51409 V 1266.7227 H 55.237476 Z"
         id="path84" /></clipPath><clipPath
       clipPathUnits="userSpaceOnUse"
       id="clipPath92"><path
         d="m 55.237476,1206.1232 v -181.7985 c -3e-6,-8.0361 1.53833,-15.7663 4.614994,-23.1906 3.076672,-7.42432 7.457482,-13.97761 13.142434,-19.65986 5.684944,-5.68231 12.241287,-10.06103 19.669029,-13.13623 7.427747,-3.07519 15.161477,-4.61279 23.201207,-4.61279 h 485.02127 c 8.03968,0 15.77338,1.5376 23.20111,4.61279 7.4278,3.0752 13.98414,7.45398 19.66913,13.13629 5.68494,5.68226 10.06574,12.23554 13.14234,19.6599 3.07666,7.4242 4.61505,15.1544 4.61511,23.1905 v 181.7985 c -6e-5,8.0359 -1.53845,15.766 -4.61511,23.1903 -3.0766,7.4242 -7.4574,13.9775 -13.14234,19.6599 -5.68499,5.6822 -12.24133,10.061 -19.66906,13.1363 -7.4278,3.0754 -15.1615,4.613 -23.20118,4.613 H 115.86514 c -8.03973,0 -15.77347,-1.5376 -23.201215,-4.613 -7.427734,-3.0753 -13.984077,-7.4541 -19.669021,-13.1363 -5.684952,-5.6824 -10.065762,-12.2357 -13.142434,-19.6599 -3.076664,-7.4243 -4.614997,-15.1544 -4.614994,-23.1903 z"
         id="path90" /></clipPath><clipPath
       clipPathUnits="userSpaceOnUse"
       id="clipPath104"><path
         d="M 0,0 H 2629.1665 V 2098.3372 H 0 Z"
         clip-rule="evenodd"
         id="path102" /></clipPath><clipPath
       clipPathUnits="userSpaceOnUse"
       id="clipPath118"><path
         d="M 984.96942,45.380417 H 1591.2461 V 348.37786 H 984.96942 Z"
         clip-rule="evenodd"
         id="path116" /></clipPath><clipPath
       clipPathUnits="userSpaceOnUse"
       id="clipPath130"><path
         d="M 0,0 H 2629.1665 V 2098.3372 H 0 Z"
         clip-rule="evenodd"
         id="path128" /></clipPath><clipPath
       clipPathUnits="userSpaceOnUse"
       id="clipPath152"><path
         d="M 0,0 H 2629.1665 V 2098.3372 H 0 Z"
         id="path150" /></clipPath><clipPath
       clipPathUnits="userSpaceOnUse"
       id="clipPath158"><path
         d="M 0,0 H 2629.1665 V 2098.3372 H 0 Z"
         id="path156" /></clipPath><clipPath
       clipPathUnits="userSpaceOnUse"
       id="clipPath164"><path
         d="M 1273.0422,342.4017 H 3794.6518 V 2358.1548 H 1273.0422 Z"
         id="path162" /></clipPath><clipPath
       clipPathUnits="userSpaceOnUse"
       id="clipPath170"><path
         d="M 1273.0422,743.57007 V 451.06308 l 66.4224,3.47375 -9.3862,292.50705 M 1273.0422,342.4017 H 3794.6519 V 2356.124 H 1273.0422"
         clip-rule="evenodd"
         id="path168" /></clipPath><clipPath
       clipPathUnits="userSpaceOnUse"
       id="clipPath182"><path
         d="M 0,0 H 2629.1665 V 2098.3372 H 0 Z"
         clip-rule="evenodd"
         id="path180" /></clipPath><clipPath
       clipPathUnits="userSpaceOnUse"
       id="clipPath200"><path
         d="M 0,0 H 2629.1665 V 2098.3372 H 0 Z"
         id="path198" /></clipPath><clipPath
       clipPathUnits="userSpaceOnUse"
       id="clipPath206"><path
         d="M 0,0 H 2629.1665 V 2098.3372 H 0 Z"
         id="path204" /></clipPath><clipPath
       clipPathUnits="userSpaceOnUse"
       id="clipPath212"><path
         d="M 1567.1218,1109.2496 H 4088.7314 V 3125.0027 H 1567.1218 Z"
         id="path210" /></clipPath><clipPath
       clipPathUnits="userSpaceOnUse"
       id="clipPath218"><path
         d="m 1655.6959,1109.2496 h 231.3325 v 57.1664 h -231.3325 m -88.5741,-57.1664 H 4088.7314 V 3122.9722 H 1567.1218"
         clip-rule="evenodd"
         id="path216" /></clipPath><clipPath
       clipPathUnits="userSpaceOnUse"
       id="clipPath230"><path
         d="M 0,0 H 2629.1665 V 2098.3372 H 0 Z"
         clip-rule="evenodd"
         id="path228" /></clipPath><clipPath
       clipPathUnits="userSpaceOnUse"
       id="clipPath248"><path
         d="M 0,0 H 2629.1665 V 2098.3372 H 0 Z"
         id="path246" /></clipPath><clipPath
       clipPathUnits="userSpaceOnUse"
       id="clipPath254"><path
         d="M 0,0 H 2629.1665 V 2098.3372 H 0 Z"
         id="path252" /></clipPath><clipPath
       clipPathUnits="userSpaceOnUse"
       id="clipPath260"><path
         d="m 1005.7654,1743.5569 h 546.5229 v 292.4152 h -546.5229 z"
         id="path258" /></clipPath><clipPath
       clipPathUnits="userSpaceOnUse"
       id="clipPath266"><path
         d="m 1005.7654,1977.489 v -175.4491 c 0,-7.7554 1.4845,-15.2156 4.4537,-22.3806 2.9692,-7.165 7.197,-13.4895 12.6835,-18.9733 5.4863,-5.484 11.8137,-9.7098 18.982,-12.6776 7.1684,-2.9676 14.632,-4.4515 22.391,-4.4515 h 429.5025 c 7.7588,0 15.2223,1.4839 22.3906,4.4515 7.1683,2.9678 13.4959,7.1936 18.9823,12.6776 5.4863,5.4838 9.7141,11.8083 12.6833,18.9733 2.9692,7.165 4.4539,14.6252 4.454,22.3806 v 175.4491 c -10e-5,7.7553 -1.4848,15.2153 -4.4541,22.3803 -2.9691,7.1649 -7.1969,13.4893 -12.6832,18.9734 -5.4864,5.4837 -11.814,9.7094 -18.9823,12.6773 -7.1683,2.9679 -14.6318,4.4519 -22.3906,4.452 h -429.5025 c -7.759,-10e-5 -15.2226,-1.4841 -22.391,-4.452 -7.1683,-2.9679 -13.4957,-7.1936 -18.9821,-12.6772 -5.4864,-5.484 -9.7142,-11.8085 -12.6834,-18.9735 -2.9692,-7.165 -4.4537,-14.625 -4.4537,-22.3803 z"
         id="path264" /></clipPath><clipPath
       clipPathUnits="userSpaceOnUse"
       id="clipPath278"><path
         d="M 0,0 H 2629.1665 V 2098.3372 H 0 Z"
         clip-rule="evenodd"
         id="path276" /></clipPath><clipPath
       clipPathUnits="userSpaceOnUse"
       id="clipPath298"><path
         d="m 1974.5289,963.72522 h 606.2767 v 302.99748 h -606.2767 z"
         clip-rule="evenodd"
         id="path296" /></clipPath><clipPath
       clipPathUnits="userSpaceOnUse"
       id="clipPath310"><path
         d="M 0,0 H 2629.1665 V 2098.3372 H 0 Z"
         clip-rule="evenodd"
         id="path308" /></clipPath><clipPath
       clipPathUnits="userSpaceOnUse"
       id="clipPath330"><path
         d="M 0,0 H 2629.1665 V 2098.3372 H 0 Z"
         id="path328" /></clipPath><clipPath
       clipPathUnits="userSpaceOnUse"
       id="clipPath336"><path
         d="M 0,0 H 2629.1665 V 2098.3372 H 0 Z"
         id="path334" /></clipPath><clipPath
       clipPathUnits="userSpaceOnUse"
       id="clipPath342"><path
         d="M 655.53162,1109.2496 H 3177.1415 V 3125.0027 H 655.53162 Z"
         id="path340" /></clipPath><clipPath
       clipPathUnits="userSpaceOnUse"
       id="clipPath348"><path
         d="m 782.46021,1109.2496 h 154.50622 v 57.1664 H 782.46021 M 655.53162,1109.2496 H 3177.1414 V 3122.9722 H 655.53162"
         clip-rule="evenodd"
         id="path346" /></clipPath><clipPath
       clipPathUnits="userSpaceOnUse"
       id="clipPath360"><path
         d="M 0,0 H 2629.1665 V 2098.3372 H 0 Z"
         clip-rule="evenodd"
         id="path358" /></clipPath><clipPath
       clipPathUnits="userSpaceOnUse"
       id="clipPath378"><path
         d="M 0,0 H 2629.1665 V 2098.3372 H 0 Z"
         id="path376" /></clipPath><clipPath
       clipPathUnits="userSpaceOnUse"
       id="clipPath384"><path
         d="M 0,0 H 2629.1665 V 2098.3372 H 0 Z"
         id="path382" /></clipPath><clipPath
       clipPathUnits="userSpaceOnUse"
       id="clipPath390"><path
         d="M 1585.2637,190.90477 H 4106.8731 V 2206.6577 H 1585.2637 Z"
         id="path388" /></clipPath><clipPath
       clipPathUnits="userSpaceOnUse"
       id="clipPath396"><path
         d="m 2081.8708,316.76697 181.2576,255.40124 -88.4226,62.69477 -181.2573,-255.40125 M 1585.2637,190.90477 H 4106.873 V 2204.6272 H 1585.2637"
         clip-rule="evenodd"
         id="path394" /></clipPath><clipPath
       clipPathUnits="userSpaceOnUse"
       id="clipPath408"><path
         d="M 0,0 H 2629.1665 V 2098.3372 H 0 Z"
         clip-rule="evenodd"
         id="path406" /></clipPath><clipPath
       clipPathUnits="userSpaceOnUse"
       id="clipPath426"><path
         d="M 0,0 H 2629.1665 V 2098.3372 H 0 Z"
         id="path424" /></clipPath><clipPath
       clipPathUnits="userSpaceOnUse"
       id="clipPath432"><path
         d="M 0,0 H 2629.1665 V 2098.3372 H 0 Z"
         id="path430" /></clipPath><clipPath
       clipPathUnits="userSpaceOnUse"
       id="clipPath438"><path
         d="M 352.39685,190.90477 H 2874.0068 V 2206.6577 H 352.39685 Z"
         id="path436" /></clipPath><clipPath
       clipPathUnits="userSpaceOnUse"
       id="clipPath444"><path
         d="M 359.90295,568.61261 509.10248,328.77826 601.16632,385.99738 451.9668,625.83173 M 352.39685,190.90477 H 2874.0066 V 2204.6272 H 352.39685"
         clip-rule="evenodd"
         id="path442" /></clipPath><clipPath
       clipPathUnits="userSpaceOnUse"
       id="clipPath456"><path
         d="M 0,0 H 2629.1665 V 2098.3372 H 0 Z"
         clip-rule="evenodd"
         id="path454" /></clipPath></defs><sodipodi:namedview
     pagecolor="#ffffff"
     bordercolor="#666666"
     borderopacity="1"
     objecttolerance="10"
     gridtolerance="10"
     guidetolerance="10"
     inkscape:pageopacity="0"
     inkscape:pageshadow="2"
     inkscape:window-width="640"
     inkscape:window-height="480"
     id="namedview4" /><g
     id="g10"
     inkscape:groupmode="layer"
     inkscape:label="triage_01"
     transform="matrix(0.31999998,0,0,0.31999998,0,1.68e-5)"><g
       id="g12"><g
         id="g14"
         clip-path="url(#clipPath18)"><g
           id="g20"
           transform="scale(3.1225255)"><path
             d="M 0,0 H 842 V 672 H 0 Z"
             style="fill:#ffffff;fill-opacity:1;fill-rule:nonzero;stroke:none"
             id="path22" /></g></g></g><g
       id="g24"><g
         id="g26"
         clip-path="url(#clipPath30)"><g
           id="g32"
           clip-path="url(#clipPath36)"><g
             id="g38"
             clip-path="url(#clipPath42)"><g
               id="g44"
               clip-path="url(#clipPath48)"><g
                 id="g50"
                 transform="matrix(2.9876893,0,0,2.9863007,984.96942,843.87604)"><path
                   d="M 98.424614,0 196.84923,90.85833 98.424614,181.71666 0,90.85833 Z"
                   style="fill:#7d49c2;fill-opacity:1;fill-rule:evenodd;stroke:none"
                   id="path52" /></g></g></g></g></g></g><g
       id="g54"><g
         id="g56"
         clip-path="url(#clipPath60)"><g
           id="g62"
           transform="matrix(3.3677113,0,0,3.1210742,1135.2881,984.96783)"><text
             transform="translate(10.578883,51.775349)"
             style="font-variant:normal;font-weight:normal;font-size:22.96px;font-family:Arial;-inkscape-font-specification:ArialMT;writing-mode:lr-tb;fill:#ffffff;fill-opacity:1;fill-rule:nonzero;stroke:none"
             id="text66"><tspan
               x="0 13.168655 20.812225 25.911682 38.677124 51.442566"
               y="0"
               sodipodi:role="line"
               id="tspan64">Triage</tspan></text></g></g></g><g
       id="g68"><g
         id="g70"
         clip-path="url(#clipPath74)"><g
           id="g76"
           clip-path="url(#clipPath80)"><g
             id="g82"
             clip-path="url(#clipPath86)"><g
               id="g88"
               clip-path="url(#clipPath92)"><g
                 id="g94"
                 transform="matrix(2.9876893,0,0,2.9863007,55.237476,963.72522)"><path
                   d="M 20.292494,0 H 182.63243 c 1.33241,0 2.65204,0.1299715 3.95886,0.38991451 1.30681,0.25994301 2.57572,0.64486279 3.80672,1.15475939 1.231,0.5098968 2.40044,1.1349726 3.50832,1.8752277 1.10786,0.7402547 2.13289,1.5814655 3.07505,2.5236318 0.94217,0.9421659 1.78338,1.9671836 2.52362,3.0750528 0.74025,1.1078708 1.36533,2.2773058 1.87523,3.5083048 0.50991,1.231 0.89482,2.49991 1.15476,3.806733 0.25995,1.306822 0.38992,2.626444 0.38994,3.95887 v 60.877481 c -2e-5,1.332421 -0.12999,2.652039 -0.38994,3.958863 -0.25994,1.306816 -0.64485,2.575721 -1.15476,3.806724 -0.5099,1.230995 -1.13498,2.400429 -1.87523,3.508301 -0.74024,1.107872 -1.58145,2.132896 -2.52362,3.075066 -0.94216,0.942161 -1.96719,1.78337 -3.07505,2.523628 -1.10788,0.740257 -2.27732,1.365333 -3.50832,1.875229 -1.231,0.509894 -2.49991,0.894824 -3.80672,1.154764 -1.30682,0.25995 -2.62645,0.38992 -3.95886,0.38992 H 20.292494 c -1.332426,0 -2.652048,-0.12997 -3.95887,-0.38992 -1.306823,-0.25994 -2.575733,-0.64487 -3.806733,-1.154764 C 11.295892,99.40789 10.126457,98.782814 9.0185871,98.042557 7.910717,97.302299 6.8856993,96.46109 5.9435334,95.518929 5.0013671,94.576759 4.1601563,93.551735 3.4199016,92.443863 2.6796465,91.335991 2.0545707,90.166557 1.5446739,88.935562 1.0347773,87.704559 0.64985752,86.435654 0.38991451,85.128838 0.1299715,83.822014 0,82.502396 0,81.169975 V 20.292494 C 0,18.960068 0.1299715,17.640446 0.38991451,16.333624 0.64985752,15.026801 1.0347773,13.757891 1.5446739,12.526891 2.0545707,11.295892 2.6796465,10.126457 3.4199016,9.0185871 4.1601563,7.910717 5.0013671,6.8856993 5.9435334,5.9435334 6.8856993,5.0013671 7.910717,4.1601563 9.0185862,3.4199016 10.126457,2.6796465 11.295892,2.0545707 12.526891,1.5446739 13.757891,1.0347773 15.026801,0.64985752 16.333624,0.38991451 17.640446,0.1299715 18.960068,0 20.292494,0 Z"
                   style="fill:#1a1a1a;fill-opacity:1;fill-rule:evenodd;stroke:none"
                   id="path96" /></g></g></g></g></g></g><g
       id="g98"><g
         id="g100"
         clip-path="url(#clipPath104)"><g
           id="g106"
           transform="matrix(3.4001377,0,0,3.1210742,62.342476,978.87512)"><text
             transform="translate(29.004192,53.733105)"
             style="font-variant:normal;font-weight:normal;font-size:22.96px;font-family:Arial;-inkscape-font-specification:ArialMT;writing-mode:lr-tb;fill:#ffffff;fill-opacity:1;fill-rule:nonzero;stroke:none"
             id="text110"><tspan
               x="0 16.576019 29.341461 35.718582 52.294601 65.060043 77.825485 90.590927 103.35637"
               y="0"
               sodipodi:role="line"
               id="tspan108">No Change</tspan></text></g></g></g><g
       id="g112"><g
         id="g114"
         clip-path="url(#clipPath118)"><g
           id="g120"
           transform="matrix(2.9876893,0,0,2.9863007,984.96942,45.380417)"><path
             d="M 0,0 H 202.92493 V 101.46247 H 0 Z"
             style="fill:#1288d5;fill-opacity:1;fill-rule:nonzero;stroke:none"
             id="path122" /></g></g></g><g
       id="g124"><g
         id="g126"
         clip-path="url(#clipPath130)"><g
           id="g132"
           transform="matrix(3.3654313,0,0,3.1210742,992.75568,60.530289)"><text
             transform="translate(30.344112,53.733105)"
             style="font-variant:normal;font-weight:normal;font-size:22.96px;font-family:Arial;-inkscape-font-specification:ArialMT;writing-mode:lr-tb;fill:#040135;fill-opacity:1;fill-rule:nonzero;stroke:none"
             id="text136"><tspan
               x="0 16.576019 29.341461 42.106903 53.583466 66.348907 79.114349 90.590912 103.35635"
               y="0"
               sodipodi:role="line"
               id="tspan134">Consensus</tspan></text></g><g
           id="g138"
           transform="matrix(2.9876893,0,0,2.9863007,1279.0176,1386.5372)"><path
             d="M 0,118.75289 C 0,74.160828 0,51.864796 0,7.2727275"
             style="fill:none;stroke:#313131;stroke-width:1;stroke-linecap:butt;stroke-linejoin:miter;stroke-miterlimit:10;stroke-dasharray:none;stroke-opacity:1"
             id="path140" /></g><g
           id="g142"
           transform="matrix(0,-2.6876707,2.6889205,0,1279.0176,1392.5098)"><path
             d="M -9.090909,-9.090909 0,0 -9.090909,9.090909 M -9.090909,0 H 0"
             style="fill:none;stroke:#313131;stroke-width:1;stroke-linecap:butt;stroke-linejoin:miter;stroke-miterlimit:10;stroke-dasharray:none;stroke-opacity:1"
             id="path144" /></g></g></g><g
       id="g146"><g
         id="g148"
         clip-path="url(#clipPath152)"><g
           id="g154"
           clip-path="url(#clipPath158)"><g
             id="g160"
             clip-path="url(#clipPath164)"><g
               id="g166"
               clip-path="url(#clipPath170)"><g
                 id="g172"
                 transform="matrix(2.9876893,0,0,2.9863007,1279.0176,348.3743)"><path
                   d="M 0,165.12769 C 0,101.97401 3.0378523,70.426399 3.0378523,7.2727275"
                   style="fill:none;stroke:#313131;stroke-width:1;stroke-linecap:butt;stroke-linejoin:miter;stroke-miterlimit:10;stroke-dasharray:none;stroke-opacity:1"
                   id="path174" /></g></g></g></g></g></g><g
       id="g176"><g
         id="g178"
         clip-path="url(#clipPath182)"><g
           id="g184"
           transform="matrix(0,-2.6876707,2.6889205,0,1288.0938,354.34689)"><path
             d="M -9.090909,-9.090909 0,0 -9.090909,9.090909 M -9.090909,0 H 0"
             style="fill:none;stroke:#313131;stroke-width:1;stroke-linecap:butt;stroke-linejoin:miter;stroke-miterlimit:10;stroke-dasharray:none;stroke-opacity:1"
             id="path186" /></g><g
           id="g188"
           transform="matrix(0.10014615,-3.1208968,3.1209204,0.10005384,1227.6991,749.54272)"><text
             transform="translate(0,22.963636)"
             style="font-variant:normal;font-weight:normal;font-size:22.96px;font-family:'Open Sans';-inkscape-font-specification:OpenSans-Regular;writing-mode:lr-tb;fill:#050038;fill-opacity:1;fill-rule:nonzero;stroke:none"
             id="text192"><tspan
               x="0 10.927399 24.791183 46.141632 60.207153 66.01268 78.890198"
               y="0"
               sodipodi:role="line"
               id="tspan190">complex</tspan></text></g></g></g><g
       id="g194"><g
         id="g196"
         clip-path="url(#clipPath200)"><g
           id="g202"
           clip-path="url(#clipPath206)"><g
             id="g208"
             clip-path="url(#clipPath212)"><g
               id="g214"
               clip-path="url(#clipPath218)"><g
                 id="g220"
                 transform="matrix(2.9876893,0,0,2.9863007,1573.0972,1115.2223)"><path
                   d="M 0.79999995,0 C 51.319382,0 76.579079,0 127.09846,0"
                   style="fill:none;stroke:#313131;stroke-width:1;stroke-linecap:butt;stroke-linejoin:miter;stroke-miterlimit:10;stroke-dasharray:none;stroke-opacity:1"
                   id="path222" /></g></g></g></g></g></g><g
       id="g224"><g
         id="g226"
         clip-path="url(#clipPath230)"><g
           id="g232"
           transform="matrix(2.6889205,0,0,2.6876707,1968.5812,1115.2223)"><path
             d="M -9.090909,-9.090909 0,0 -9.090909,9.090909 M -9.090909,0 H 0"
             style="fill:none;stroke:#313131;stroke-width:1;stroke-linecap:butt;stroke-linejoin:miter;stroke-miterlimit:10;stroke-dasharray:none;stroke-opacity:1"
             id="path234" /></g><g
           id="g236"
           transform="matrix(3.1239541,0,0,3.121074,1661.6713,1064.0284)"><text
             transform="translate(0,22.963636)"
             style="font-variant:normal;font-weight:normal;font-size:22.96px;font-family:'Open Sans';-inkscape-font-specification:OpenSans-Regular;writing-mode:lr-tb;fill:#313131;fill-opacity:1;fill-rule:nonzero;stroke:none"
             id="text240"><tspan
               x="0 10.949814 16.755341 38.105789 52.17131 57.976837"
               y="0"
               sodipodi:role="line"
               id="tspan238">simple</tspan></text></g></g></g><g
       id="g242"><g
         id="g244"
         clip-path="url(#clipPath248)"><g
           id="g250"
           clip-path="url(#clipPath254)"><g
             id="g256"
             clip-path="url(#clipPath260)"><g
               id="g262"
               clip-path="url(#clipPath266)"><g
                 id="g268"
                 transform="matrix(2.9876893,0,0,2.9863007,1005.7654,1743.5569)"><path
                   d="M 19.583771,0 H 163.34116 c 1.28588,0 2.55941,0.12543219 3.82058,0.37629658 1.26119,0.25086439 2.48578,0.62234068 3.67379,1.11442892 1.188,0.4920882 2.3166,1.0953331 3.38577,1.8097346 1.06918,0.7144015 2.05841,1.5262325 2.96766,2.4354932 0.90926,0.9092603 1.72109,1.898479 2.43549,2.9676562 0.7144,1.0691776 1.31766,2.1977695 1.80974,3.3857755 0.49208,1.188006 0.86355,2.4126 1.11442,3.673781 0.25087,1.261179 0.3763,2.534714 0.37632,3.820605 v 58.751312 c -2e-5,1.285889 -0.12545,2.559425 -0.37632,3.820602 -0.25087,1.261177 -0.62234,2.485764 -1.11442,3.673775 -0.49208,1.188011 -1.09534,2.316605 -1.80974,3.38578 -0.7144,1.069176 -1.52623,2.058396 -2.43549,2.967659 -0.90925,0.909256 -1.89848,1.721085 -2.96766,2.435486 -1.06917,0.714402 -2.19777,1.317643 -3.38577,1.809731 -1.18801,0.492088 -2.41259,0.863571 -3.67376,1.114433 -1.26118,0.250862 -2.53473,0.376297 -3.82061,0.376305 H 19.583771 c -1.285891,-8e-6 -2.559426,-0.125443 -3.820605,-0.376305 C 14.501985,97.291687 13.277391,96.920204 12.089385,96.428116 10.901379,95.936028 9.7727871,95.332787 8.7036095,94.618385 7.6344323,93.903984 6.6452136,93.092155 5.7359533,92.182899 4.8266926,91.273636 4.0148616,90.284416 3.3004601,89.21524 2.5860586,88.146065 1.9828137,87.017471 1.4907255,85.82946 0.99863726,84.641449 0.62716097,83.416862 0.37629658,82.155685 0.12543219,80.894508 0,79.620972 0,78.335083 V 19.583771 C 0,18.29788 0.12543219,17.024345 0.37629658,15.763166 0.62716097,14.501985 0.99863726,13.277391 1.4907255,12.089385 1.9828137,10.901379 2.5860586,9.7727871 3.3004601,8.7036095 4.0148616,7.6344323 4.8266926,6.6452136 5.7359533,5.7359533 6.6452136,4.8266926 7.6344323,4.0148616 8.7036095,3.3004601 9.7727871,2.5860586 10.901379,1.9828137 12.089385,1.4907255 13.277391,0.99863726 14.501985,0.62716097 15.763166,0.37629658 17.024345,0.12543219 18.29788,0 19.583771,0 Z"
                   style="fill:#28ca69;fill-opacity:1;fill-rule:evenodd;stroke:none"
                   id="path270" /></g></g></g></g></g></g><g
       id="g272"><g
         id="g274"
         clip-path="url(#clipPath278)"><g
           id="g280"
           transform="matrix(3.4858718,0,0,3.1210742,1012.5158,1758.1776)"><text
             transform="translate(21.679893,39.290291)"
             style="font-variant:normal;font-weight:normal;font-size:22.96px;font-family:Arial;-inkscape-font-specification:ArialMT;writing-mode:lr-tb;fill:#1a1a1a;fill-opacity:1;fill-rule:nonzero;stroke:none"
             id="text284"><tspan
               x="0 16.576019 29.341461 40.818024 52.294586 59.938156 65.037613 77.803055 90.568497 96.945618 109.71106"
               y="0"
               sodipodi:role="line"
               id="tspan282">Describe a </tspan></text></g><g
           id="g286"
           transform="matrix(3.5042775,0,0,3.1210742,1004.9041,1758.1776)"><text
             transform="translate(40.573315,65.124382)"
             style="font-variant:normal;font-weight:normal;font-size:22.96px;font-family:Arial;-inkscape-font-specification:ArialMT;writing-mode:lr-tb;fill:#1a1a1a;fill-opacity:1;fill-rule:nonzero;stroke:none"
             id="text290"><tspan
               x="0 11.476562 24.242004 37.007446 49.772888 62.53833"
               y="0"
               sodipodi:role="line"
               id="tspan288">change</tspan></text></g></g></g><g
       id="g292"><g
         id="g294"
         clip-path="url(#clipPath298)"><g
           id="g300"
           transform="matrix(2.9876893,0,0,2.9863007,1974.5289,963.72522)"><path
             d="M 0,0 H 202.92493 V 101.46247 H 0 Z"
             style="fill:#1288d5;fill-opacity:1;fill-rule:nonzero;stroke:none"
             id="path302" /></g></g></g><g
       id="g304"><g
         id="g306"
         clip-path="url(#clipPath310)"><g
           id="g312"
           transform="matrix(3.5606413,0,0,3.1210742,1967.1241,978.87512)"><text
             transform="translate(51.496899,40.816059)"
             style="font-variant:normal;font-weight:normal;font-size:22.96px;font-family:Arial;-inkscape-font-specification:ArialMT;writing-mode:lr-tb;fill:#040135;fill-opacity:1;fill-rule:nonzero;stroke:none"
             id="text316"><tspan
               x="0 15.309555 28.074997 40.840439 59.960571 65.060028"
               y="0"
               sodipodi:role="line"
               id="tspan314">Submit</tspan></text></g><g
           id="g318"
           transform="matrix(3.3910985,0,0,3.1210742,1983.8956,978.87512)"><text
             transform="translate(21.55895,66.650154)"
             style="font-variant:normal;font-weight:normal;font-size:22.96px;font-family:Arial;-inkscape-font-specification:ArialMT;writing-mode:lr-tb;fill:#040135;fill-opacity:1;fill-rule:nonzero;stroke:none"
             id="text322"><tspan
               x="0 15.309555 28.074997 33.174454 38.273911 44.651031 61.227051 73.992493 86.757935 99.523376 112.28882 123.76538"
               y="0"
               sodipodi:role="line"
               id="tspan320">Pull Request</tspan></text></g></g></g><g
       id="g324"><g
         id="g326"
         clip-path="url(#clipPath330)"><g
           id="g332"
           clip-path="url(#clipPath336)"><g
             id="g338"
             clip-path="url(#clipPath342)"><g
               id="g344"
               clip-path="url(#clipPath348)"><g
                 id="g350"
                 transform="matrix(2.9876893,0,0,2.9863007,661.50702,1115.2223)"><path
                   d="M 107.4646,0 C 67.387848,0 47.349476,0 7.2727275,0"
                   style="fill:none;stroke:#313131;stroke-width:1;stroke-linecap:butt;stroke-linejoin:miter;stroke-miterlimit:10;stroke-dasharray:none;stroke-opacity:1"
                   id="path352" /></g></g></g></g></g></g><g
       id="g354"><g
         id="g356"
         clip-path="url(#clipPath360)"><g
           id="g362"
           transform="matrix(-2.6889205,0,0,-2.6876707,667.48242,1115.2223)"><path
             d="M -9.090909,-9.090909 0,0 -9.090909,9.090909 M -9.090909,0 H 0"
             style="fill:none;stroke:#313131;stroke-width:1;stroke-linecap:butt;stroke-linejoin:miter;stroke-miterlimit:10;stroke-dasharray:none;stroke-opacity:1"
             id="path364" /></g><g
           id="g366"
           transform="matrix(3.1239538,0,0,3.121074,788.43561,1064.0284)"><text
             transform="translate(0,22.963636)"
             style="font-variant:normal;font-weight:normal;font-size:22.96px;font-family:'Open Sans';-inkscape-font-specification:OpenSans-Regular;writing-mode:lr-tb;fill:#050038;fill-opacity:1;fill-rule:nonzero;stroke:none"
             id="text370"><tspan
               x="0 11.498978 24.376495 32.479584"
               y="0"
               sodipodi:role="line"
               id="tspan368">veto</tspan></text></g></g></g><g
       id="g372"><g
         id="g374"
         clip-path="url(#clipPath378)"><g
           id="g380"
           clip-path="url(#clipPath384)"><g
             id="g386"
             clip-path="url(#clipPath390)"><g
               id="g392"
               clip-path="url(#clipPath396)"><g
                 id="g398"
                 transform="matrix(2.9876893,0,0,2.9863007,1591.239,196.87737)"><path
                   d="M 0.79999995,0 C 136.25693,0 229.75795,114.05636 229.75795,249.51329"
                   style="fill:none;stroke:#313131;stroke-width:1;stroke-linecap:butt;stroke-linejoin:miter;stroke-miterlimit:10;stroke-dasharray:none;stroke-opacity:1"
                   id="path400" /></g></g></g></g></g></g><g
       id="g402"><g
         id="g404"
         clip-path="url(#clipPath408)"><g
           id="g410"
           transform="matrix(0,2.6876707,-2.6889205,0,2277.6843,957.745)"><path
             d="M -9.090909,-9.090909 0,0 -9.090909,9.090909 M -9.090909,0 H 0"
             style="fill:none;stroke:#313131;stroke-width:1;stroke-linecap:butt;stroke-linejoin:miter;stroke-miterlimit:10;stroke-dasharray:none;stroke-opacity:1"
             id="path412" /></g><g
           id="g414"
           transform="matrix(1.807452,2.5467956,-2.5468154,1.8057859,2087.8462,322.73953)"><text
             transform="translate(0,22.963636)"
             style="font-variant:normal;font-weight:normal;font-size:22.96px;font-family:'Open Sans';-inkscape-font-specification:OpenSans-Regular;writing-mode:lr-tb;fill:#313131;fill-opacity:1;fill-rule:nonzero;stroke:none"
             id="text418"><tspan
               x="0 12.765442 23.692841 34.620239 47.497757 61.563278 69.666367 82.543884"
               y="0"
               sodipodi:role="line"
               id="tspan416">accepted</tspan></text></g></g></g><g
       id="g420"><g
         id="g422"
         clip-path="url(#clipPath426)"><g
           id="g428"
           clip-path="url(#clipPath432)"><g
             id="g434"
             clip-path="url(#clipPath438)"><g
               id="g440"
               clip-path="url(#clipPath444)"><g
                 id="g446"
                 transform="matrix(2.9876893,0,0,2.9863007,358.37222,196.87737)"><path
                   d="M 208.92706,0 C 78.753395,0 0,119.33962 0,249.51329"
                   style="fill:none;stroke:#313131;stroke-width:1;stroke-linecap:butt;stroke-linejoin:miter;stroke-miterlimit:10;stroke-dasharray:none;stroke-opacity:1"
                   id="path448" /></g></g></g></g></g></g><g
       id="g450"><g
         id="g452"
         clip-path="url(#clipPath456)"><g
           id="g458"
           transform="matrix(0,2.6876707,-2.6889205,0,358.37222,957.745)"><path
             d="M -9.090909,-9.090909 0,0 -9.090909,9.090909 M -9.090909,0 H 0"
             style="fill:none;stroke:#313131;stroke-width:1;stroke-linecap:butt;stroke-linejoin:miter;stroke-miterlimit:10;stroke-dasharray:none;stroke-opacity:1"
             id="path460" /></g><g
           id="g462"
           transform="matrix(1.6495931,-2.6516767,2.6516969,1.6480726,365.87836,574.58521)"><text
             transform="translate(0,22.963636)"
             style="font-variant:normal;font-weight:normal;font-size:22.96px;font-family:'Open Sans';-inkscape-font-specification:OpenSans-Regular;writing-mode:lr-tb;fill:#313131;fill-opacity:1;fill-rule:nonzero;stroke:none"
             id="text466"><tspan
               x="0 9.3695374 22.247055 28.052582 40.930099 51.857498 59.960587 72.838104"
               y="0"
               sodipodi:role="line"
               id="tspan464">rejected</tspan></text></g></g></g></g></svg>
