<svg version="1.2" xmlns="http://www.w3.org/2000/svg" viewBox="0 0 1144 244" width="1144" height="244"><style></style><path  d="m223.5-0.5h44.9v238.4h-44.9z"/><path  d="m430.5 56.2h44.9v181.7h-43l-1.1-20.2q-3.4 3.9-8.4 8-4.9 4.2-11.4 7.8-6.5 3.7-14.8 5.9-8.4 2.3-19.1 2.3-33.4 0-50.9-20-17.5-19.9-17.5-53.8v-111.7h44.9v111.3q0 17.1 9.3 26.5 9.3 9.3 24.1 9.3 9.2 0 17.2-3.6 7.9-3.6 13.7-10.1 5.7-6.5 8.9-15 3.2-8.6 3.2-18.5z"/><path  d="m632.5 195.3l19 27.8q-13.3 11-26.2 15.8-13 4.7-28.9 4.7-16.4 0-27.8-4.7-11.4-4.8-18.5-13.5-7-8.8-10.1-21.2-3-12.3-3-27.2v-82.1h-30.4v-38.7h30.4v-56.7h44.9v56.7h47.9v38.7h-47.9v79.1q0 15.2 5.1 23.4 5.2 8.2 16.6 8.2 10.6 0 16.9-3.1 6.3-3 12-7.2z"/><path  d="m786.4 195.3l19 27.8q-13.3 11-26.2 15.8-12.9 4.7-28.9 4.7-16.4 0-27.8-4.7-11.4-4.8-18.5-13.5-7-8.8-10-21.2-3.1-12.3-3.1-27.2v-82.1h-30.4v-38.7h30.4v-56.7h44.9v56.7h48v38.7h-48v79.1q0 15.2 5.2 23.4 5.1 8.2 16.5 8.2 10.7 0 16.9-3.1 6.3-3 12-7.2z"/><path fill-rule="evenodd" d="m986.3 118.4q4.6 18.3 4.6 37.3v6.5h-133.2q0 9.9 4.4 17.9 4.4 8 11.4 13.7 7.1 5.7 16 8.7 8.9 3.1 17.7 3.1 12.9 0 22.6-2.5 9.7-2.5 16.6-5.7 6.8-3.2 11.2-6.9 4.4-3.6 6.7-5.9l24.3 27.4q-1.1 1.2-6.3 6.3-5.1 5.2-14.8 10.9-9.7 5.7-24.7 10.2-15.1 4.6-36 4.6-21.3 0-38.8-7.2-17.5-7.3-29.9-20-12.3-12.7-19-30.6-6.6-17.9-6.6-39.6 0-19.8 6.6-36.7 6.7-16.9 18.7-29.5 11.9-12.6 28.5-19.8 16.5-7.2 36.7-7.2 24.3 0 41.3 8.9 16.9 9 27.2 23.4 10.3 14.5 14.8 32.7zm-41.4 11.5q-0.1-6.9-2.7-13.7-2.7-6.9-7.8-12.4-5.1-5.5-13.1-9.1-8-3.6-18.3-3.6-11 0-19.6 3.6-8.6 3.6-14.3 9.1-5.7 5.5-8.7 12.4-3.1 6.8-3.1 13.7z"/><path  d="m1144.4 57.4l-9.2 42.2q-4.5-1.9-9.3-2.7-4.7-0.7-11.2-0.7-9.1 0-17.5 3-8.4 3.1-14.5 8.8-6.1 5.7-9.7 13.7-3.6 8-3.6 17.9v98.3h-44.9v-181.7h43l1.2 23.6q3-3.8 7.8-8.3 4.7-4.6 11.2-8.4 6.4-3.8 15-6.5 8.6-2.6 19.6-2.7 6.5 0 11.6 0.8 5.1 0.8 10.5 2.7z"/><path  d="m0 47.1v-47.7h190.8v47.7z"/><path  d="m0 142.5v-47.7h143.1v47.7z"/><path  d="m0 190.2h47.7v47.7h-47.7z"/><path  d="m1104.2 4.2h-7.7v-4.7h20.8v4.7h-7.7v19h-5.4z"/><path  d="m1120.7-0.5h5.1l6.2 11.1 6-11.1h5.2l1.1 23.7h-5.4l-0.7-15.5-4.9 9.2h-2.8l-5.2-9.1-0.6 15.4h-5.1z"/></svg>